<svg width="120" height="135" viewBox="0 0 120 135" fill="none" xmlns="http://www.w3.org/2000/svg">
<path d="M76.7988 0.689819C70.0101 0.689819 63.4404 1.59822 57.179 3.26903C50.6985 4.99661 44.5749 7.57581 38.8974 10.8525C33.1469 14.1779 27.8588 18.2252 23.1951 22.8888C18.5314 27.5525 14.4842 32.8488 11.1507 38.5993C7.86586 44.2687 5.29476 50.4004 3.56718 56.8808C1.89638 63.1423 0.987976 69.712 0.987976 76.5006H9.80432C9.80432 70.5068 10.6073 64.6995 12.0915 59.1599C13.6245 53.4419 15.9036 48.0239 18.8072 43.0196C21.7514 37.9423 25.3282 33.2705 29.4485 29.1503C33.5687 25.0301 38.2405 21.4532 43.3178 18.5091C48.3302 15.6054 53.74 13.3263 59.4581 11.7934C64.9896 10.3091 70.805 9.50616 76.7988 9.50616V0.689819Z" fill="url(#paint0_radial_0_1307)"/>
<path d="M59.4581 11.7933C53.74 13.3262 48.3221 15.6054 43.3178 18.509C38.2405 21.4532 33.5687 25.03 29.4485 29.1502C25.3282 33.2705 21.7514 37.9423 18.8072 43.0196C15.9036 48.032 13.6245 53.4418 12.0915 59.1599C10.6073 64.6914 9.80432 70.5068 9.80432 76.5006C9.80432 82.4944 10.6073 88.3017 12.0915 93.8413C13.6245 99.5593 15.9036 104.977 18.8072 109.982C21.7514 115.059 25.3282 119.731 29.4485 123.851L35.6775 117.622C32.0926 114.037 28.9943 109.99 26.4394 105.577C23.917 101.23 21.9379 96.5259 20.6078 91.5541C19.3182 86.7525 18.6207 81.6995 18.6207 76.5006C18.6207 71.2935 19.3182 66.2486 20.6078 61.4471C21.9379 56.4833 23.917 51.7791 26.4394 47.4237C28.9943 43.0114 32.1007 38.9642 35.6775 35.3793C39.2624 31.7943 43.3097 28.696 47.7219 26.1412C52.0692 23.6187 56.7734 21.6397 61.7453 20.3096C66.5468 19.02 71.5998 18.3224 76.7988 18.3224V9.5061C70.805 9.5061 64.9977 10.3091 59.4581 11.7933Z" fill="url(#paint1_linear_0_1307)"/>
<path d="M29.1159 63.7263C30.2433 59.5087 31.9222 55.5263 34.0635 51.8279C36.229 48.0888 38.865 44.6499 41.9065 41.6084C44.948 38.5668 48.387 35.939 52.126 33.7653C55.8164 31.6241 59.8068 29.9452 64.0244 28.8178C68.1041 27.7228 72.3866 27.1307 76.7988 27.1307V18.3225C71.5917 18.3225 66.5468 19.02 61.7453 20.3096C56.7816 21.6398 52.0773 23.6188 47.7219 26.1412C43.3097 28.6961 39.2624 31.8025 35.6775 35.3793C32.0926 38.9643 28.9943 43.0115 26.4394 47.4237C23.917 51.7711 21.9379 56.4753 20.6078 61.4472C19.3182 66.2487 18.6207 71.2936 18.6207 76.5006C18.6207 81.7077 19.3182 86.7526 20.6078 91.5541C21.9379 96.5179 23.917 101.222 26.4394 105.578C28.9943 109.99 32.1007 114.037 35.6775 117.622C39.2624 121.207 43.3097 124.305 47.7219 126.86C52.0692 129.382 56.7734 131.361 61.7453 132.692C66.555 133.981 71.5998 134.679 76.7988 134.679V125.871C72.3784 125.871 68.1041 125.278 64.0244 124.183C59.8068 123.056 55.8245 121.377 52.126 119.236C48.387 117.07 44.948 114.434 41.9065 111.393C38.865 108.351 36.2371 104.912 34.0635 101.173C31.9222 97.483 30.2433 93.4926 29.1159 89.275C28.021 85.1953 27.4289 80.9129 27.4289 76.5006C27.4289 72.0803 28.021 67.8059 29.1159 63.7263Z" fill="url(#paint2_radial_0_1307)"/>
<path d="M111.902 96.7692C110.118 99.8431 107.96 102.666 105.462 105.164C102.964 107.662 100.141 109.827 97.0675 111.604C94.034 113.364 90.7573 114.743 87.2941 115.667C83.9443 116.567 80.4324 117.054 76.7988 117.054C73.1733 117.054 69.6533 116.567 66.3035 115.667C62.8403 114.743 59.5635 113.364 56.5301 111.604C53.4562 109.819 50.6336 107.662 48.1355 105.164C45.6374 102.666 43.48 99.8431 41.6956 96.7692C39.9356 93.7358 38.5568 90.459 37.6322 86.9958C36.7319 83.646 36.2452 80.126 36.2452 76.5005C36.2452 72.875 36.7319 69.355 37.6322 66.0052C38.5568 62.542 39.9356 59.2652 41.6956 56.2318C43.48 53.1579 45.6374 50.3354 48.1355 47.8373C50.6336 45.3392 53.4562 43.1817 56.5301 41.3974C59.5635 39.6373 62.8403 38.2585 66.3035 37.3339C69.6533 36.4336 73.1733 35.947 76.7988 35.947V27.1306C72.3784 27.1306 68.1041 27.7227 64.0244 28.8176C59.8068 29.945 55.8245 31.6239 52.126 33.7652C48.387 35.9307 44.948 38.5667 41.9065 41.6082C38.865 44.6497 36.2371 48.0887 34.0635 51.8277C31.9222 55.5181 30.2433 59.5086 29.1159 63.7261C28.021 67.8058 27.4289 72.0883 27.4289 76.5005C27.4289 80.9208 28.021 85.1952 29.1159 89.2749C30.2433 93.4924 31.9222 97.4748 34.0635 101.173C36.229 104.912 38.865 108.351 41.9065 111.393C44.948 114.434 48.387 117.062 52.126 119.236C55.8164 121.377 59.8068 123.056 64.0244 124.183C68.1041 125.278 72.3866 125.87 76.7988 125.87C81.2191 125.87 85.4935 125.278 89.5732 124.183C93.7907 123.056 97.7731 121.377 101.472 119.236C105.211 117.07 108.65 114.434 111.691 111.393C114.733 108.351 117.36 104.912 119.534 101.173L111.902 96.7692Z" fill="url(#paint3_linear_0_1307)"/>
<path d="M108.536 76.5006C108.536 79.3393 108.155 82.0889 107.449 84.7167C106.719 87.4257 105.64 89.9887 104.27 92.3651C102.875 94.774 101.18 96.9801 99.233 98.9348C97.2783 100.889 95.0722 102.585 92.6633 103.98C90.2869 105.358 87.7239 106.437 85.0149 107.159C82.3952 107.865 79.6457 108.246 76.7988 108.246C73.96 108.246 71.2105 107.865 68.5826 107.159C65.8737 106.429 63.3107 105.35 60.9342 103.98C58.5254 102.585 56.3193 100.889 54.3646 98.9429C52.4099 96.9963 50.7148 94.774 49.3278 92.3732C47.949 89.9968 46.8703 87.4338 46.1484 84.7248C45.4428 82.1051 45.0616 79.3555 45.0616 76.5087C45.0616 73.6699 45.4428 70.9204 46.1484 68.2925C46.8784 65.5836 47.9571 63.0206 49.3278 60.6441C50.7229 58.2353 52.418 56.0291 54.3727 54.0745C56.3274 52.1198 58.5335 50.4246 60.9424 49.0377C63.3188 47.6589 65.8818 46.5802 68.5908 45.8583C71.2105 45.1527 73.96 44.7715 76.8069 44.7715V35.947C73.1814 35.947 69.6614 36.4337 66.3116 37.334C62.8484 38.2586 59.5717 39.6374 56.5382 41.3974C53.4643 43.1818 50.6418 45.3392 48.1437 47.8373C45.6456 50.3354 43.4881 53.1579 41.7038 56.2319C39.9437 59.2653 38.5649 62.542 37.6403 66.0053C36.74 69.355 36.2534 72.867 36.2534 76.5006C36.2534 80.1261 36.74 83.6461 37.6403 86.9958C38.5649 90.4591 39.9437 93.7358 41.7038 96.7692C43.4881 99.8432 45.6456 102.666 48.1437 105.164C50.6418 107.662 53.4643 109.819 56.5382 111.604C59.5717 113.364 62.8484 114.743 66.3116 115.667C69.6614 116.567 73.1814 117.054 76.8069 117.054C80.4324 117.054 83.9524 116.567 87.3022 115.667C90.7654 114.743 94.0422 113.364 97.0756 111.604C100.15 109.819 102.972 107.662 105.47 105.164C107.968 102.666 110.126 99.8432 111.91 96.7692C113.67 93.7358 115.049 90.4591 115.974 86.9958C116.874 83.6461 117.36 80.1342 117.36 76.5006H108.536Z" fill="url(#paint4_radial_0_1307)"/>
<path opacity="0.77" d="M114.505 75.9247C113.776 73.2158 112.697 70.6528 111.326 68.2763C109.931 65.8675 108.236 63.6614 106.289 61.7067C104.335 59.752 102.129 58.0569 99.7197 56.6699C97.3432 55.2911 94.7803 54.2124 92.0713 53.4905C89.4515 52.7849 86.702 52.4037 83.8551 52.4037C81.0164 52.4037 78.2668 52.7849 75.639 53.4905C72.93 54.2205 70.367 55.2992 67.9906 56.6699C65.5817 58.065 63.3756 59.7601 61.4209 61.7067C59.4662 63.6614 57.7711 65.8675 56.3842 68.2763C55.0053 70.6528 53.9266 73.2158 53.2048 75.9247C52.4991 78.5445 52.1179 81.294 52.1179 84.1409C52.1179 86.9796 52.4991 89.7292 53.2048 92.357C53.9347 95.066 55.0134 97.629 56.3842 100.005C57.7792 102.414 59.4743 104.62 61.4209 106.575C63.3675 108.53 65.5898 110.225 67.9906 111.612C70.367 112.991 72.93 114.069 75.639 114.791C78.2587 115.497 81.0083 115.878 83.8551 115.878C86.6939 115.878 89.4434 115.497 92.0713 114.791C94.7803 114.061 97.3432 112.983 99.7197 111.612C102.129 110.217 104.335 108.522 106.289 106.567C108.244 104.612 109.939 102.406 111.326 99.9973C112.705 97.6209 113.784 95.0579 114.505 92.3489C115.211 89.7292 115.592 86.9796 115.592 84.1328C115.592 81.3021 115.211 78.5526 114.505 75.9247Z" fill="url(#paint5_radial_0_1307)"/>
<path d="M107.449 68.2844C106.719 65.5754 105.64 63.0124 104.27 60.636C102.875 58.2271 101.18 56.021 99.233 54.0663C97.2783 52.1116 95.0722 50.4165 92.6633 49.0295C90.2869 47.6507 87.7239 46.572 85.0149 45.8501C82.3952 45.1445 79.6456 44.7633 76.7988 44.7633C73.96 44.7633 71.2105 45.1445 68.5826 45.8501C65.8737 46.5801 63.3107 47.6588 60.9342 49.0295C58.5254 50.4246 56.3192 52.1197 54.3646 54.0663C52.4099 56.021 50.7147 58.2271 49.3197 60.636C47.9409 63.0124 46.8622 65.5754 46.1403 68.2844C45.4347 70.9041 45.0535 73.6537 45.0535 76.5005C45.0535 79.3393 45.4347 82.0888 46.1403 84.7167C46.8703 87.4256 47.949 89.9886 49.3197 92.3651C50.7147 94.7739 52.4099 96.98 54.3565 98.9347C56.303 100.889 58.5172 102.585 60.9261 103.971C63.3026 105.35 65.8655 106.429 68.5745 107.151C71.1943 107.857 73.9438 108.238 76.7907 108.238C79.6294 108.238 82.379 107.857 85.0068 107.151C87.7158 106.421 90.2788 105.342 92.6552 103.971C95.0641 102.576 97.2702 100.881 99.2249 98.9266C101.18 96.9719 102.875 94.7658 104.262 92.3569C105.64 89.9805 106.719 87.4175 107.441 84.7085C108.147 82.0888 108.528 79.3393 108.528 76.4924C108.536 73.6618 108.155 70.9122 107.449 68.2844Z" fill="url(#paint6_linear_0_1307)"/>
<path d="M100.287 70.2067C99.7277 68.1303 98.9004 66.1676 97.8461 64.3508C96.7754 62.5096 95.4777 60.8145 93.9854 59.314C92.4849 57.8135 90.7978 56.5239 88.9486 55.4533C87.1318 54.3989 85.169 53.5716 83.0927 53.012C81.0812 52.4767 78.9724 52.1847 76.7988 52.1847C74.6251 52.1847 72.5163 52.4767 70.5048 53.012C68.4285 53.5716 66.4657 54.3989 64.6489 55.4533C62.8078 56.5239 61.1126 57.8216 59.6122 59.314C58.1117 60.8145 56.8221 62.5015 55.7515 64.3508C54.6971 66.1676 53.8698 68.1303 53.3101 70.2067C52.7748 72.2181 52.4828 74.3269 52.4828 76.5006C52.4828 78.6743 52.7748 80.7831 53.3101 82.7945C53.8698 84.8708 54.6971 86.8336 55.7515 88.6504C56.8221 90.4916 58.1198 92.1867 59.6122 93.6872C61.1126 95.1877 62.7997 96.4773 64.6489 97.5479C66.4657 98.6023 68.4285 99.4296 70.5048 99.9892C72.5163 100.525 74.6251 100.817 76.7988 100.817C78.9724 100.817 81.0812 100.525 83.0927 99.9892C85.169 99.4296 87.1318 98.6023 88.9486 97.5479C90.7897 96.4773 92.4849 95.1796 93.9854 93.6872C95.4858 92.1867 96.7754 90.4997 97.8461 88.6504C98.9004 86.8336 99.7277 84.8708 100.287 82.7945C100.823 80.7831 101.115 78.6743 101.115 76.5006C101.115 74.3269 100.823 72.2181 100.287 70.2067Z" fill="#F5F7F6"/>
<path d="M100.231 7.29194L104.197 5.02906L100.231 2.75806V4.80196H81.0569V5.24805H100.231V7.29194Z" fill="#F5F7F6"/>
<path d="M100.231 13.6913H81.0569V14.1374H100.231V16.0758L104.197 13.8048L100.231 11.5338V13.6913Z" fill="#F5F7F6"/>
<path d="M100.231 22.5482H81.0569V22.9862H100.231V25.0382L104.197 22.7672L100.231 20.4962V22.5482Z" fill="#F5F7F6"/>
<path d="M100.231 31.9079H81.0569V32.354H100.231V34.1789L104.197 31.9079L100.231 29.645V31.9079Z" fill="#F5F7F6"/>
<path d="M100.231 40.9433H81.0569V41.3894H100.231V43.4414L104.197 41.1704L100.231 38.8994V40.9433Z" fill="#F5F7F6"/>
<path d="M110.632 38.6541L109.023 42.2605H108.506L110.109 38.7821H108.007V38.3767H110.632V38.6541ZM111.419 40.3132L111.616 38.3767H113.606V38.8328H112.035L111.917 39.8918C112.108 39.7798 112.324 39.7237 112.566 39.7237C112.92 39.7237 113.201 39.8411 113.409 40.0758C113.617 40.3088 113.721 40.6245 113.721 41.0228C113.721 41.4229 113.612 41.7386 113.395 41.9697C113.18 42.1991 112.879 42.3138 112.491 42.3138C112.148 42.3138 111.868 42.2187 111.651 42.0284C111.434 41.8381 111.31 41.575 111.28 41.2389H111.747C111.777 41.4611 111.856 41.6292 111.984 41.743C112.112 41.855 112.281 41.9111 112.491 41.9111C112.72 41.9111 112.9 41.8328 113.03 41.6763C113.161 41.5198 113.227 41.3038 113.227 41.0281C113.227 40.7685 113.156 40.5604 113.014 40.4039C112.873 40.2457 112.686 40.1665 112.451 40.1665C112.236 40.1665 112.067 40.2137 111.944 40.3079L111.813 40.4146L111.419 40.3132ZM114.217 39.1236C114.217 38.8906 114.291 38.6985 114.438 38.5474C114.588 38.3962 114.779 38.3207 115.012 38.3207C115.248 38.3207 115.439 38.3971 115.585 38.5501C115.733 38.7012 115.807 38.8977 115.807 39.1396V39.329C115.807 39.5637 115.732 39.7557 115.583 39.9051C115.435 40.0527 115.246 40.1265 115.017 40.1265C114.786 40.1265 114.595 40.0527 114.444 39.9051C114.292 39.7557 114.217 39.5575 114.217 39.3103V39.1236ZM114.585 39.329C114.585 39.4677 114.624 39.5824 114.702 39.6731C114.781 39.762 114.885 39.8064 115.017 39.8064C115.143 39.8064 115.245 39.7629 115.321 39.6757C115.399 39.5886 115.439 39.4694 115.439 39.3183V39.1236C115.439 38.9849 115.4 38.8702 115.324 38.7795C115.247 38.6888 115.143 38.6434 115.012 38.6434C114.88 38.6434 114.776 38.6888 114.7 38.7795C114.623 38.8702 114.585 38.9884 114.585 39.1342V39.329ZM116.108 41.3082C116.108 41.0753 116.182 40.8841 116.329 40.7347C116.479 40.5836 116.67 40.508 116.903 40.508C117.136 40.508 117.327 40.5827 117.476 40.732C117.626 40.8814 117.701 41.0797 117.701 41.3269V41.5163C117.701 41.7492 117.626 41.9413 117.476 42.0924C117.329 42.2418 117.139 42.3165 116.908 42.3165C116.677 42.3165 116.486 42.2427 116.335 42.0951C116.184 41.9457 116.108 41.7475 116.108 41.5003V41.3082ZM116.476 41.5163C116.476 41.6568 116.515 41.7724 116.594 41.863C116.672 41.952 116.777 41.9964 116.908 41.9964C117.036 41.9964 117.139 41.9529 117.215 41.8657C117.292 41.7768 117.33 41.6568 117.33 41.5056V41.3082C117.33 41.1677 117.291 41.053 117.212 40.9641C117.136 40.8752 117.033 40.8307 116.903 40.8307C116.777 40.8307 116.674 40.8752 116.594 40.9641C116.515 41.0512 116.476 41.1695 116.476 41.3189V41.5163ZM115.129 41.9671L114.849 41.791L116.746 38.7554L117.026 38.9315L115.129 41.9671Z" fill="#F5F7F6"/>
<path d="M110.061 29.6485V30.0673H109.97C109.586 30.0744 109.28 30.1883 109.053 30.4088C108.825 30.6293 108.693 30.9396 108.658 31.3397C108.862 31.105 109.142 30.9876 109.495 30.9876C109.833 30.9876 110.103 31.1068 110.304 31.345C110.506 31.5833 110.608 31.891 110.608 32.268C110.608 32.6681 110.498 32.9882 110.28 33.2283C110.063 33.4683 109.771 33.5884 109.405 33.5884C109.033 33.5884 108.732 33.4461 108.5 33.1616C108.269 32.8753 108.154 32.5072 108.154 32.0573V31.8679C108.154 31.153 108.306 30.607 108.61 30.23C108.916 29.8513 109.37 29.6574 109.973 29.6485H110.061ZM109.413 31.3984C109.244 31.3984 109.088 31.4491 108.946 31.5504C108.804 31.6518 108.705 31.779 108.65 31.9319V32.1133C108.65 32.4334 108.722 32.6912 108.866 32.8868C109.01 33.0825 109.19 33.1803 109.405 33.1803C109.627 33.1803 109.801 33.0985 109.928 32.9349C110.056 32.7713 110.12 32.557 110.12 32.292C110.12 32.0252 110.055 31.8101 109.925 31.6465C109.797 31.4811 109.626 31.3984 109.413 31.3984ZM113.627 31.8785C113.627 32.4565 113.529 32.886 113.331 33.1669C113.134 33.4479 112.825 33.5884 112.406 33.5884C111.991 33.5884 111.685 33.4515 111.485 33.1776C111.286 32.902 111.183 32.4912 111.176 31.9452V31.2864C111.176 30.7155 111.275 30.2914 111.472 30.014C111.669 29.7366 111.979 29.5979 112.4 29.5979C112.818 29.5979 113.126 29.7321 113.323 30.0006C113.521 30.2674 113.622 30.68 113.627 31.2383V31.8785ZM113.134 31.2037C113.134 30.7858 113.075 30.4817 112.958 30.2914C112.84 30.0993 112.655 30.0033 112.4 30.0033C112.148 30.0033 111.964 30.0985 111.848 30.2887C111.733 30.479 111.673 30.7715 111.669 31.1663V31.9559C111.669 32.3756 111.73 32.6859 111.851 32.8868C111.973 33.086 112.158 33.1856 112.406 33.1856C112.649 33.1856 112.83 33.0913 112.947 32.9028C113.066 32.7143 113.129 32.4174 113.134 32.0119V31.2037ZM114.217 30.3981C114.217 30.1651 114.291 29.9731 114.438 29.8219C114.588 29.6708 114.779 29.5952 115.012 29.5952C115.248 29.5952 115.439 29.6717 115.585 29.8246C115.733 29.9757 115.807 30.1722 115.807 30.4141V30.6035C115.807 30.8382 115.732 31.0303 115.583 31.1797C115.435 31.3273 115.246 31.4011 115.017 31.4011C114.786 31.4011 114.595 31.3273 114.444 31.1797C114.292 31.0303 114.217 30.832 114.217 30.5848V30.3981ZM114.585 30.6035C114.585 30.7422 114.624 30.8569 114.702 30.9476C114.781 31.0365 114.885 31.081 115.017 31.081C115.143 31.081 115.245 31.0374 115.321 30.9503C115.399 30.8631 115.439 30.744 115.439 30.5928V30.3981C115.439 30.2594 115.4 30.1447 115.324 30.054C115.247 29.9633 115.143 29.918 115.012 29.918C114.88 29.918 114.776 29.9633 114.7 30.054C114.623 30.1447 114.585 30.2629 114.585 30.4088V30.6035ZM116.108 32.5827C116.108 32.3498 116.182 32.1586 116.329 32.0092C116.479 31.8581 116.67 31.7825 116.903 31.7825C117.136 31.7825 117.327 31.8572 117.476 32.0066C117.626 32.156 117.701 32.3542 117.701 32.6014V32.7908C117.701 33.0238 117.626 33.2158 117.476 33.367C117.329 33.5164 117.139 33.5911 116.908 33.5911C116.677 33.5911 116.486 33.5173 116.335 33.3697C116.184 33.2203 116.108 33.022 116.108 32.7748V32.5827ZM116.476 32.7908C116.476 32.9313 116.515 33.0469 116.594 33.1376C116.672 33.2265 116.777 33.271 116.908 33.271C117.036 33.271 117.139 33.2274 117.215 33.1402C117.292 33.0513 117.33 32.9313 117.33 32.7801V32.5827C117.33 32.4423 117.291 32.3276 117.212 32.2386C117.136 32.1497 117.033 32.1053 116.903 32.1053C116.777 32.1053 116.674 32.1497 116.594 32.2386C116.515 32.3258 116.476 32.444 116.476 32.5934V32.7908ZM115.129 33.2416L114.849 33.0656L116.746 30.03L117.026 30.206L115.129 33.2416Z" fill="#F5F7F6"/>
<path d="M108.351 22.7108L108.548 20.7743H110.538V21.2304H108.967L108.85 22.2894C109.04 22.1773 109.256 22.1213 109.498 22.1213C109.852 22.1213 110.133 22.2387 110.341 22.4734C110.549 22.7064 110.653 23.022 110.653 23.4204C110.653 23.8205 110.545 24.1361 110.328 24.3673C110.112 24.5967 109.811 24.7114 109.423 24.7114C109.08 24.7114 108.8 24.6163 108.583 24.426C108.366 24.2357 108.243 23.9725 108.212 23.6364H108.679C108.709 23.8587 108.789 24.0268 108.917 24.1406C109.045 24.2526 109.214 24.3086 109.423 24.3086C109.653 24.3086 109.832 24.2304 109.962 24.0739C110.094 23.9174 110.16 23.7014 110.16 23.4257C110.16 23.1661 110.088 22.958 109.946 22.8015C109.806 22.6433 109.618 22.5641 109.383 22.5641C109.168 22.5641 108.999 22.6112 108.877 22.7055L108.746 22.8122L108.351 22.7108ZM113.627 23.0016C113.627 23.5795 113.529 24.009 113.331 24.29C113.134 24.5709 112.825 24.7114 112.406 24.7114C111.991 24.7114 111.685 24.5745 111.485 24.3006C111.286 24.025 111.183 23.6142 111.176 23.0683V22.4094C111.176 21.8386 111.275 21.4144 111.472 21.137C111.669 20.8596 111.979 20.7209 112.4 20.7209C112.818 20.7209 113.126 20.8552 113.323 21.1237C113.521 21.3904 113.622 21.803 113.627 22.3614V23.0016ZM113.134 22.3267C113.134 21.9088 113.075 21.6047 112.958 21.4144C112.84 21.2224 112.655 21.1264 112.4 21.1264C112.148 21.1264 111.964 21.2215 111.848 21.4118C111.733 21.6021 111.673 21.8946 111.669 22.2894V23.0789C111.669 23.4986 111.73 23.8089 111.851 24.0099C111.973 24.2091 112.158 24.3086 112.406 24.3086C112.649 24.3086 112.83 24.2144 112.947 24.0259C113.066 23.8374 113.129 23.5404 113.134 23.135V22.3267ZM114.217 21.5211C114.217 21.2882 114.291 21.0961 114.438 20.945C114.588 20.7938 114.779 20.7182 115.012 20.7182C115.248 20.7182 115.439 20.7947 115.585 20.9476C115.733 21.0988 115.807 21.2953 115.807 21.5371V21.7265C115.807 21.9613 115.732 22.1533 115.583 22.3027C115.435 22.4503 115.246 22.5241 115.017 22.5241C114.786 22.5241 114.595 22.4503 114.444 22.3027C114.292 22.1533 114.217 21.955 114.217 21.7079V21.5211ZM114.585 21.7265C114.585 21.8652 114.624 21.9799 114.702 22.0706C114.781 22.1596 114.885 22.204 115.017 22.204C115.143 22.204 115.245 22.1604 115.321 22.0733C115.399 21.9862 115.439 21.867 115.439 21.7159V21.5211C115.439 21.3824 115.4 21.2677 115.324 21.177C115.247 21.0863 115.143 21.041 115.012 21.041C114.88 21.041 114.776 21.0863 114.7 21.177C114.623 21.2677 114.585 21.386 114.585 21.5318V21.7265ZM116.108 23.7058C116.108 23.4728 116.182 23.2817 116.329 23.1323C116.479 22.9811 116.67 22.9056 116.903 22.9056C117.136 22.9056 117.327 22.9802 117.476 23.1296C117.626 23.279 117.701 23.4773 117.701 23.7245V23.9139C117.701 24.1468 117.626 24.3389 117.476 24.49C117.329 24.6394 117.139 24.7141 116.908 24.7141C116.677 24.7141 116.486 24.6403 116.335 24.4927C116.184 24.3433 116.108 24.145 116.108 23.8979V23.7058ZM116.476 23.9139C116.476 24.0543 116.515 24.1699 116.594 24.2606C116.672 24.3495 116.777 24.394 116.908 24.394C117.036 24.394 117.139 24.3504 117.215 24.2633C117.292 24.1744 117.33 24.0543 117.33 23.9032V23.7058C117.33 23.5653 117.291 23.4506 117.212 23.3617C117.136 23.2728 117.033 23.2283 116.903 23.2283C116.777 23.2283 116.674 23.2728 116.594 23.3617C116.515 23.4488 116.476 23.5671 116.476 23.7165V23.9139ZM115.129 24.3647L114.849 24.1886L116.746 21.153L117.026 21.3291L115.129 24.3647Z" fill="#F5F7F6"/>
<path d="M108.842 13.0675H109.213C109.446 13.064 109.629 13.0026 109.762 12.8835C109.896 12.7643 109.962 12.6034 109.962 12.4007C109.962 11.9454 109.735 11.7178 109.282 11.7178C109.069 11.7178 108.898 11.7791 108.77 11.9018C108.644 12.0228 108.58 12.1837 108.58 12.3847H108.087C108.087 12.077 108.199 11.8218 108.423 11.6191C108.649 11.4146 108.935 11.3123 109.282 11.3123C109.648 11.3123 109.936 11.4093 110.144 11.6031C110.352 11.7969 110.456 12.0663 110.456 12.4113C110.456 12.5803 110.401 12.7439 110.29 12.9021C110.182 13.0604 110.033 13.1787 109.845 13.2569C110.058 13.3245 110.223 13.4365 110.338 13.593C110.456 13.7495 110.514 13.9407 110.514 14.1665C110.514 14.5151 110.401 14.7916 110.173 14.9961C109.945 15.2006 109.649 15.3029 109.285 15.3029C108.92 15.3029 108.623 15.2042 108.394 15.0068C108.166 14.8094 108.052 14.5489 108.052 14.2252H108.548C108.548 14.4297 108.615 14.5933 108.749 14.716C108.882 14.8387 109.061 14.9001 109.285 14.9001C109.523 14.9001 109.705 14.8378 109.832 14.7134C109.958 14.5889 110.021 14.4101 110.021 14.1772C110.021 13.9513 109.952 13.778 109.813 13.657C109.674 13.5361 109.474 13.4739 109.213 13.4703H108.842V13.0675ZM113.627 13.593C113.627 14.171 113.529 14.6004 113.331 14.8814C113.134 15.1624 112.825 15.3029 112.406 15.3029C111.991 15.3029 111.685 15.1659 111.485 14.8921C111.286 14.6164 111.183 14.2056 111.176 13.6597V13.0008C111.176 12.43 111.275 12.0059 111.472 11.7285C111.669 11.451 111.979 11.3123 112.4 11.3123C112.818 11.3123 113.126 11.4466 113.323 11.7151C113.521 11.9819 113.622 12.3944 113.627 12.9528V13.593ZM113.134 12.9181C113.134 12.5002 113.075 12.1962 112.958 12.0059C112.84 11.8138 112.655 11.7178 112.4 11.7178C112.148 11.7178 111.964 11.8129 111.848 12.0032C111.733 12.1935 111.673 12.486 111.669 12.8808V13.6704C111.669 14.0901 111.73 14.4004 111.851 14.6013C111.973 14.8005 112.158 14.9001 112.406 14.9001C112.649 14.9001 112.83 14.8058 112.947 14.6173C113.066 14.4288 113.129 14.1318 113.134 13.7264V12.9181ZM114.217 12.1126C114.217 11.8796 114.291 11.6876 114.438 11.5364C114.588 11.3852 114.779 11.3097 115.012 11.3097C115.248 11.3097 115.439 11.3861 115.585 11.5391C115.733 11.6902 115.807 11.8867 115.807 12.1286V12.318C115.807 12.5527 115.732 12.7448 115.583 12.8941C115.435 13.0417 115.246 13.1155 115.017 13.1155C114.786 13.1155 114.595 13.0417 114.444 12.8941C114.292 12.7448 114.217 12.5465 114.217 12.2993V12.1126ZM114.585 12.318C114.585 12.4567 114.624 12.5714 114.702 12.6621C114.781 12.751 114.885 12.7954 115.017 12.7954C115.143 12.7954 115.245 12.7519 115.321 12.6647C115.399 12.5776 115.439 12.4585 115.439 12.3073V12.1126C115.439 11.9739 115.4 11.8592 115.324 11.7685C115.247 11.6778 115.143 11.6324 115.012 11.6324C114.88 11.6324 114.776 11.6778 114.7 11.7685C114.623 11.8592 114.585 11.9774 114.585 12.1232V12.318ZM116.108 14.2972C116.108 14.0643 116.182 13.8731 116.329 13.7237C116.479 13.5726 116.67 13.497 116.903 13.497C117.136 13.497 117.327 13.5717 117.476 13.7211C117.626 13.8704 117.701 14.0687 117.701 14.3159V14.5053C117.701 14.7382 117.626 14.9303 117.476 15.0815C117.329 15.2308 117.139 15.3055 116.908 15.3055C116.677 15.3055 116.486 15.2317 116.335 15.0841C116.184 14.9348 116.108 14.7365 116.108 14.4893V14.2972ZM116.476 14.5053C116.476 14.6458 116.515 14.7614 116.594 14.8521C116.672 14.941 116.777 14.9854 116.908 14.9854C117.036 14.9854 117.139 14.9419 117.215 14.8547C117.292 14.7658 117.33 14.6458 117.33 14.4946V14.2972C117.33 14.1567 117.291 14.042 117.212 13.9531C117.136 13.8642 117.033 13.8198 116.903 13.8198C116.777 13.8198 116.674 13.8642 116.594 13.9531C116.515 14.0403 116.476 14.1585 116.476 14.3079V14.5053ZM115.129 14.9561L114.849 14.78L116.746 11.7445L117.026 11.9205L115.129 14.9561Z" fill="#F5F7F6"/>
<path d="M109.746 5.68982H109.25V2.40083L108.255 2.76628V2.31814L109.669 1.78732H109.746V5.68982ZM111.419 3.74257L111.616 1.80599H113.606V2.26213H112.035L111.917 3.32111C112.108 3.20908 112.324 3.15306 112.566 3.15306C112.92 3.15306 113.201 3.27043 113.409 3.50517C113.617 3.73812 113.721 4.05377 113.721 4.45212C113.721 4.85224 113.612 5.16789 113.395 5.39907C113.18 5.62847 112.879 5.74317 112.491 5.74317C112.148 5.74317 111.868 5.64803 111.651 5.45775C111.434 5.26747 111.31 5.00428 111.28 4.66818H111.747C111.777 4.89047 111.856 5.05852 111.984 5.17233C112.112 5.28436 112.281 5.34038 112.491 5.34038C112.72 5.34038 112.9 5.26214 113.03 5.10564C113.161 4.94915 113.227 4.73309 113.227 4.45745C113.227 4.19782 113.156 3.98975 113.014 3.83326C112.873 3.67499 112.686 3.59586 112.451 3.59586C112.236 3.59586 112.067 3.64298 111.944 3.73723L111.813 3.84393L111.419 3.74257ZM114.217 2.55288C114.217 2.31992 114.291 2.12786 114.438 1.97671C114.588 1.82555 114.779 1.74997 115.012 1.74997C115.248 1.74997 115.439 1.82644 115.585 1.97938C115.733 2.13053 115.807 2.32704 115.807 2.56889V2.75828C115.807 2.99301 115.732 3.18507 115.583 3.33445C115.435 3.48205 115.246 3.55585 115.017 3.55585C114.786 3.55585 114.595 3.48205 114.444 3.33445C114.292 3.18507 114.217 2.98679 114.217 2.7396V2.55288ZM114.585 2.75828C114.585 2.89698 114.624 3.01168 114.702 3.10238C114.781 3.19129 114.885 3.23575 115.017 3.23575C115.143 3.23575 115.245 3.19218 115.321 3.10505C115.399 3.01791 115.439 2.89876 115.439 2.74761V2.55288C115.439 2.41417 115.4 2.29947 115.324 2.20878C115.247 2.11808 115.143 2.07274 115.012 2.07274C114.88 2.07274 114.776 2.11808 114.7 2.20878C114.623 2.29947 114.585 2.41773 114.585 2.56355V2.75828ZM116.108 4.73753C116.108 4.50458 116.182 4.31341 116.329 4.16403C116.479 4.01287 116.67 3.93729 116.903 3.93729C117.136 3.93729 117.327 4.01198 117.476 4.16136C117.626 4.31074 117.701 4.50902 117.701 4.75621V4.9456C117.701 5.17856 117.626 5.37061 117.476 5.52177C117.329 5.67115 117.139 5.74584 116.908 5.74584C116.677 5.74584 116.486 5.67204 116.335 5.52444C116.184 5.37506 116.108 5.17678 116.108 4.92959V4.73753ZM116.476 4.9456C116.476 5.08608 116.515 5.20167 116.594 5.29237C116.672 5.38128 116.777 5.42574 116.908 5.42574C117.036 5.42574 117.139 5.38217 117.215 5.29503C117.292 5.20612 117.33 5.08608 117.33 4.93493V4.73753C117.33 4.59705 117.291 4.48235 117.212 4.39343C117.136 4.30452 117.033 4.26006 116.903 4.26006C116.777 4.26006 116.674 4.30452 116.594 4.39343C116.515 4.48057 116.476 4.59883 116.476 4.7482V4.9456ZM115.129 5.3964L114.849 5.22035L116.746 2.18477L117.026 2.36082L115.129 5.3964Z" fill="#F5F7F6"/>
<path d="M80.3767 71.2494C78.3256 69.6194 75.4188 69.5923 73.4492 71.1951C72.0365 72.3361 71.3302 74.0476 71.3302 76.2617C71.3302 77.7287 72.6478 79.8341 72.8108 80.1058C72.8244 80.1193 73.911 81.5863 74.1691 83.3386L74.237 83.7733H79.7111L79.779 83.3386C80.0371 81.5863 81.1238 80.1193 81.1509 80.0786C81.3003 79.8477 82.6179 77.7423 82.6179 76.2753C82.6043 74.1019 81.8573 72.4176 80.3767 71.2494ZM76.8586 74.1291C75.9349 74.1563 75.0928 74.7268 74.7396 75.5825C74.6581 75.7727 74.4679 75.8949 74.2642 75.8949C74.1963 75.8949 74.1284 75.8813 74.0604 75.8542C73.8024 75.7455 73.6801 75.4467 73.7888 75.1886C74.3049 73.9661 75.5003 73.1511 76.8179 73.1103C77.0895 73.0968 77.334 73.3277 77.334 73.6129C77.3612 73.8846 77.1439 74.1155 76.8586 74.1291Z" fill="#193566"/>
<path d="M79.6703 86.0687H74.0196C73.7344 86.0687 73.5035 85.8378 73.5035 85.5525C73.5035 85.2673 73.7344 85.0364 74.0196 85.0364H79.6703C79.9556 85.0364 80.1865 85.2673 80.1865 85.5525C80.1865 85.8378 79.9556 86.0687 79.6703 86.0687Z" fill="#193566"/>
<path d="M78.3935 85.7971H75.1743V87.1419H78.3935V85.7971Z" fill="#193566"/>
<path d="M76.7363 68.8586C76.4511 68.8586 76.2202 68.6277 76.2202 68.3425V66.9026C76.2202 66.6174 76.4511 66.3865 76.7363 66.3865C77.0216 66.3865 77.2525 66.6174 77.2525 66.9026V68.3425C77.2525 68.6413 77.0216 68.8586 76.7363 68.8586Z" fill="#193566"/>
<path d="M72.6478 70.0134C72.4712 70.0134 72.2946 69.9183 72.1995 69.7553L71.4796 68.5056C71.3438 68.2611 71.4253 67.9487 71.6698 67.8129C71.9143 67.677 72.2267 67.7585 72.3625 68.003L73.0825 69.2527C73.2183 69.4972 73.1368 69.8096 72.8923 69.9454C72.8244 69.9998 72.7429 70.0134 72.6478 70.0134Z" fill="#193566"/>
<path d="M69.6866 73.0696C69.6051 73.0696 69.51 73.0424 69.4285 73.0016L68.1789 72.2817C67.9344 72.1459 67.8529 71.8335 67.9887 71.589C68.1245 71.3445 68.437 71.263 68.6815 71.3988L69.9311 72.1187C70.1756 72.2546 70.2571 72.567 70.1213 72.8115C70.0398 72.9745 69.8632 73.0696 69.6866 73.0696Z" fill="#193566"/>
<path d="M68.6407 77.1853H67.2009C66.9156 77.1853 66.6847 76.9544 66.6847 76.6691C66.6847 76.3839 66.9156 76.153 67.2009 76.153H68.6407C68.9259 76.153 69.1569 76.3839 69.1569 76.6691C69.1569 76.9544 68.9259 77.1853 68.6407 77.1853Z" fill="#193566"/>
<path d="M68.5592 81.9938C68.3826 81.9938 68.206 81.8987 68.1109 81.7357C67.9751 81.4912 68.0566 81.1788 68.3011 81.0429L69.5507 80.323C69.7952 80.1872 70.1077 80.2687 70.2435 80.5132C70.3793 80.7577 70.2978 81.0701 70.0533 81.2059L68.8037 81.9258C68.7357 81.9666 68.6407 81.9938 68.5592 81.9938Z" fill="#193566"/>
<path d="M85.2666 81.8036C85.1851 81.8036 85.0901 81.7764 85.0086 81.7357L83.7589 81.0157C83.5144 80.8799 83.4329 80.5675 83.5687 80.323C83.7046 80.0785 84.017 79.997 84.2615 80.1328L85.5111 80.8527C85.7556 80.9886 85.8371 81.301 85.7013 81.5455C85.6062 81.7085 85.4432 81.8036 85.2666 81.8036Z" fill="#193566"/>
<path d="M86.5028 76.9543H85.0629C84.7777 76.9543 84.5468 76.7234 84.5468 76.4382C84.5468 76.1529 84.7777 75.922 85.0629 75.922H86.5028C86.788 75.922 87.0189 76.1529 87.0189 76.4382C87.0189 76.7234 86.788 76.9543 86.5028 76.9543Z" fill="#193566"/>
<path d="M83.9083 72.8658C83.7318 72.8658 83.5552 72.7707 83.4601 72.6077C83.3243 72.3632 83.4058 72.0508 83.6503 71.915L84.8999 71.1951C85.1444 71.0592 85.4568 71.1407 85.5927 71.3852C85.7285 71.6297 85.647 71.9422 85.4025 72.078L84.1528 72.7979C84.0849 72.8522 83.9898 72.8658 83.9083 72.8658Z" fill="#193566"/>
<path d="M80.8657 69.9046C80.7842 69.9046 80.6891 69.8774 80.6076 69.8367C80.3631 69.7009 80.2816 69.3884 80.4174 69.1439L81.1373 67.8943C81.2732 67.6498 81.5856 67.5683 81.8301 67.7041C82.0746 67.8399 82.1561 68.1523 82.0203 68.3968L81.3003 69.6465C81.2052 69.8095 81.0287 69.9046 80.8657 69.9046Z" fill="#193566"/>
<defs>
<radialGradient id="paint0_radial_0_1307" cx="0" cy="0" r="1" gradientUnits="userSpaceOnUse" gradientTransform="translate(38.8937 62.3238) rotate(-90) scale(65.2316)">
<stop stop-color="#0066FF"/>
<stop offset="0.276042" stop-color="#0066FF"/>
<stop offset="0.6406" stop-color="#0097CE"/>
<stop offset="1" stop-color="#0058CB"/>
</radialGradient>
<linearGradient id="paint1_linear_0_1307" x1="43.3011" y1="144.745" x2="43.3011" y2="13.8383" gradientUnits="userSpaceOnUse">
<stop stop-color="#27B7FF"/>
<stop offset="0.9899" stop-color="#F408AB"/>
</linearGradient>
<radialGradient id="paint2_radial_0_1307" cx="0" cy="0" r="1" gradientUnits="userSpaceOnUse" gradientTransform="translate(47.7087 62.3236) rotate(-90) scale(65.2318)">
<stop stop-color="#0066FF"/>
<stop offset="0.307292" stop-color="#0066FF"/>
<stop offset="0.651042" stop-color="#0097CE"/>
<stop offset="0.9819" stop-color="#0058CB"/>
</radialGradient>
<linearGradient id="paint3_linear_0_1307" x1="73.4822" y1="144.745" x2="73.4822" y2="13.8377" gradientUnits="userSpaceOnUse">
<stop stop-color="#27B7FF"/>
<stop offset="0.9899" stop-color="#F408AB"/>
</linearGradient>
<radialGradient id="paint4_radial_0_1307" cx="0" cy="0" r="1" gradientUnits="userSpaceOnUse" gradientTransform="translate(76.7996 62.3238) rotate(-90) scale(65.2315)">
<stop stop-color="#0066FF"/>
<stop offset="0.338542" stop-color="#0066FF"/>
<stop offset="0.692708" stop-color="#0097CE"/>
<stop offset="0.9819" stop-color="#0058CB"/>
</radialGradient>
<radialGradient id="paint5_radial_0_1307" cx="0" cy="0" r="1" gradientUnits="userSpaceOnUse" gradientTransform="translate(83.8516 84.1411) scale(31.7366 31.7366)">
<stop offset="0.000116"/>
<stop offset="0.0894" stop-color="#1D1D1D"/>
<stop offset="0.3464" stop-color="#6C6C6C"/>
<stop offset="0.5751" stop-color="#ABABAB"/>
<stop offset="0.7669" stop-color="#D9D9D9"/>
<stop offset="0.9145" stop-color="#F5F5F5"/>
<stop offset="1" stop-color="white"/>
</radialGradient>
<linearGradient id="paint6_linear_0_1307" x1="105.008" y1="104.709" x2="52.8751" y2="52.5768" gradientUnits="userSpaceOnUse">
<stop stop-color="#071A35"/>
<stop offset="1" stop-color="#193566"/>
</linearGradient>
</defs>
</svg>
