<svg width="205" height="103" viewBox="0 0 205 103" fill="none" xmlns="http://www.w3.org/2000/svg">
<path d="M204.583 3.68323H10.072V4.27531H204.583V3.68323Z" fill="#FDFEFF"/>
<path d="M204.583 10.3097H10.072V10.9018H204.583V10.3097Z" fill="#FDFEFF"/>
<path d="M204.583 16.9362H10.072V17.5282H204.583V16.9362Z" fill="#FDFEFF"/>
<path d="M204.583 23.5707H10.072V24.1709H204.583V23.5707Z" fill="#FDFEFF"/>
<path d="M204.583 30.1973H10.072V30.7975H204.583V30.1973Z" fill="#FDFEFF"/>
<path d="M204.583 36.8236H10.072V37.4238H204.583V36.8236Z" fill="#FDFEFF"/>
<path d="M204.583 43.4501H10.072V44.0422H204.583V43.4501Z" fill="#FDFEFF"/>
<path d="M204.583 50.0764H10.072V50.6766H204.583V50.0764Z" fill="#FDFEFF"/>
<path d="M204.583 56.703H10.072V57.2951H204.583V56.703Z" fill="#FDFEFF"/>
<path d="M204.583 63.3375H10.072V63.9296H204.583V63.3375Z" fill="#FDFEFF"/>
<path d="M204.583 69.964H10.072V70.5561H204.583V69.964Z" fill="#FDFEFF"/>
<path d="M204.583 76.5905H10.072V77.1825H204.583V76.5905Z" fill="#FDFEFF"/>
<path d="M204.583 83.2169H10.072V83.809H204.583V83.2169Z" fill="#FDFEFF"/>
<path d="M204.583 89.8433H10.072V90.4354H204.583V89.8433Z" fill="#FDFEFF"/>
<path d="M10.1451 3.86169H9.55298V90.403H10.1451V3.86169Z" fill="#FDFEFF"/>
<path d="M27.8427 3.86169H27.2506V90.403H27.8427V3.86169Z" fill="#FDFEFF"/>
<path d="M45.5402 3.86169H44.9481V90.403H45.5402V3.86169Z" fill="#FDFEFF"/>
<path d="M63.2378 3.86169H62.6457V90.403H63.2378V3.86169Z" fill="#FDFEFF"/>
<path d="M80.9354 3.86169H80.3433V90.403H80.9354V3.86169Z" fill="#FDFEFF"/>
<path d="M98.6248 3.86169H98.0327V90.403H98.6248V3.86169Z" fill="#FDFEFF"/>
<path d="M116.322 3.86169H115.73V90.403H116.322V3.86169Z" fill="#FDFEFF"/>
<path d="M134.02 3.86169H133.428V90.403H134.02V3.86169Z" fill="#FDFEFF"/>
<path d="M151.717 3.86169H151.125V90.403H151.717V3.86169Z" fill="#FDFEFF"/>
<path d="M169.415 3.86169H168.823V90.403H169.415V3.86169Z" fill="#FDFEFF"/>
<path d="M187.113 3.86169H186.521V90.403H187.113V3.86169Z" fill="#FDFEFF"/>
<path d="M204.802 3.86169H204.21V90.403H204.802V3.86169Z" fill="#FDFEFF"/>
<path d="M23.3794 100.374H20.8784V100.026L22.1997 98.5576C22.3954 98.3356 22.53 98.1556 22.6034 98.0175C22.6786 97.8777 22.7161 97.7335 22.7161 97.585C22.7161 97.3857 22.6559 97.2223 22.5353 97.0947C22.4147 96.9671 22.2539 96.9033 22.0529 96.9033C21.8117 96.9033 21.6238 96.9724 21.4892 97.1104C21.3564 97.2468 21.29 97.4373 21.29 97.682H20.805C20.805 97.3307 20.9177 97.0466 21.1432 96.8299C21.3704 96.6132 21.6736 96.5048 22.0529 96.5048C22.4077 96.5048 22.6882 96.5983 22.8944 96.7854C23.1007 96.9706 23.2038 97.2179 23.2038 97.5273C23.2038 97.9031 22.9643 98.3505 22.4854 98.8696L21.463 99.9785H23.3794V100.374ZM26.2868 98.7463C26.2868 99.3144 26.1898 99.7365 25.9958 100.013C25.8018 100.289 25.4986 100.427 25.0861 100.427C24.6789 100.427 24.3774 100.292 24.1816 100.023C23.9859 99.7522 23.8845 99.3485 23.8775 98.8119V98.1643C23.8775 97.6033 23.9745 97.1865 24.1685 96.9138C24.3625 96.6412 24.6667 96.5048 25.0809 96.5048C25.4916 96.5048 25.794 96.6368 25.988 96.9007C26.182 97.1629 26.2816 97.5684 26.2868 98.1172V98.7463ZM25.8018 98.0831C25.8018 97.6723 25.7441 97.3735 25.6288 97.1865C25.5134 96.9977 25.3308 96.9033 25.0809 96.9033C24.8327 96.9033 24.6518 96.9968 24.5382 97.1838C24.4246 97.3709 24.366 97.6584 24.3625 98.0464V98.8224C24.3625 99.2348 24.422 99.5398 24.5408 99.7373C24.6614 99.9331 24.8432 100.031 25.0861 100.031C25.3256 100.031 25.503 99.9383 25.6183 99.7531C25.7354 99.5678 25.7966 99.2759 25.8018 98.8774V98.0831ZM28.5021 100.374H28.0145V97.1419L27.0366 97.5011V97.0606L28.4261 96.5389H28.5021V100.374ZM30.1459 98.4606L30.3399 96.5573H32.2956V97.0056H30.7515L30.6361 98.0464C30.8231 97.9363 31.0355 97.8812 31.2732 97.8812C31.621 97.8812 31.8971 97.9966 32.1016 98.2273C32.3061 98.4562 32.4084 98.7664 32.4084 99.1579C32.4084 99.5512 32.3018 99.8614 32.0885 100.089C31.877 100.314 31.5808 100.427 31.1998 100.427C30.8625 100.427 30.5872 100.333 30.374 100.146C30.1607 99.9593 30.0393 99.7006 30.0096 99.3703H30.4684C30.4981 99.5888 30.5758 99.7539 30.7017 99.8658C30.8275 99.9759 30.9936 100.031 31.1998 100.031C31.4253 100.031 31.6018 99.9541 31.7294 99.8002C31.8587 99.6464 31.9234 99.4341 31.9234 99.1632C31.9234 98.908 31.8535 98.7035 31.7136 98.5497C31.5756 98.3942 31.3912 98.3164 31.1605 98.3164C30.949 98.3164 30.7829 98.3627 30.6624 98.4553L30.5339 98.5602L30.1459 98.4606Z" fill="#F5F7F6"/>
<path d="M41.7818 100.374H39.2807V100.026L40.602 98.5576C40.7978 98.3356 40.9324 98.1556 41.0058 98.0175C41.0809 97.8777 41.1185 97.7335 41.1185 97.585C41.1185 97.3857 41.0582 97.2223 40.9376 97.0947C40.817 96.9671 40.6562 96.9033 40.4552 96.9033C40.214 96.9033 40.0261 96.9724 39.8916 97.1104C39.7587 97.2468 39.6923 97.4373 39.6923 97.682H39.2073C39.2073 97.3307 39.32 97.0466 39.5455 96.8299C39.7727 96.6132 40.076 96.5048 40.4552 96.5048C40.81 96.5048 41.0905 96.5983 41.2968 96.7854C41.503 96.9706 41.6061 97.2179 41.6061 97.5273C41.6061 97.9031 41.3667 98.3505 40.8878 98.8696L39.8653 99.9785H41.7818V100.374ZM44.6892 98.7463C44.6892 99.3144 44.5922 99.7365 44.3982 100.013C44.2042 100.289 43.9009 100.427 43.4885 100.427C43.0812 100.427 42.7797 100.292 42.584 100.023C42.3882 99.7522 42.2869 99.3485 42.2799 98.8119V98.1643C42.2799 97.6033 42.3769 97.1865 42.5709 96.9138C42.7649 96.6412 43.069 96.5048 43.4832 96.5048C43.8939 96.5048 44.1963 96.6368 44.3903 96.9007C44.5843 97.1629 44.6839 97.5684 44.6892 98.1172V98.7463ZM44.2042 98.0831C44.2042 97.6723 44.1465 97.3735 44.0311 97.1865C43.9158 96.9977 43.7331 96.9033 43.4832 96.9033C43.235 96.9033 43.0541 96.9968 42.9405 97.1838C42.8269 97.3709 42.7684 97.6584 42.7649 98.0464V98.8224C42.7649 99.2348 42.8243 99.5398 42.9432 99.7373C43.0638 99.9331 43.2455 100.031 43.4885 100.031C43.7279 100.031 43.9053 99.9383 44.0207 99.7531C44.1378 99.5678 44.1989 99.2759 44.2042 98.8774V98.0831ZM46.9045 100.374H46.4168V97.1419L45.439 97.5011V97.0606L46.8284 96.5389H46.9045V100.374ZM50.2287 96.5547V96.9663H50.1396C49.7621 96.9732 49.4614 97.0851 49.2377 97.3018C49.014 97.5185 48.8847 97.8235 48.8497 98.2168C49.0507 97.9861 49.3251 97.8707 49.6729 97.8707C50.005 97.8707 50.2698 97.9878 50.4673 98.222C50.6665 98.4562 50.7661 98.7586 50.7661 99.1291C50.7661 99.5224 50.6587 99.837 50.4437 100.073C50.2305 100.309 49.9438 100.427 49.5838 100.427C49.2185 100.427 48.9223 100.287 48.695 100.007C48.4678 99.726 48.3542 99.3642 48.3542 98.922V98.7359C48.3542 98.0333 48.5037 97.4967 48.8025 97.1262C49.1031 96.7539 49.5497 96.5634 50.1422 96.5547H50.2287ZM49.5916 98.2745C49.4256 98.2745 49.2727 98.3243 49.1329 98.4239C48.993 98.5235 48.896 98.6485 48.8419 98.7988V98.9771C48.8419 99.2917 48.9126 99.5451 49.0542 99.7373C49.1958 99.9296 49.3723 100.026 49.5838 100.026C49.8023 100.026 49.9735 99.9453 50.0976 99.7845C50.2235 99.6237 50.2864 99.4131 50.2864 99.1527C50.2864 98.8905 50.2226 98.6791 50.095 98.5183C49.9692 98.3557 49.8014 98.2745 49.5916 98.2745Z" fill="#F5F7F6"/>
<path d="M59.9544 100.374H57.4534V100.026L58.7747 98.5576C58.9704 98.3356 59.105 98.1556 59.1784 98.0175C59.2536 97.8777 59.2912 97.7335 59.2912 97.585C59.2912 97.3857 59.2309 97.2223 59.1103 97.0947C58.9897 96.9671 58.8289 96.9033 58.6279 96.9033C58.3867 96.9033 58.1988 96.9724 58.0642 97.1104C57.9314 97.2468 57.865 97.4373 57.865 97.682H57.38C57.38 97.3307 57.4927 97.0466 57.7182 96.8299C57.9454 96.6132 58.2486 96.5048 58.6279 96.5048C58.9827 96.5048 59.2632 96.5983 59.4694 96.7854C59.6757 96.9706 59.7788 97.2179 59.7788 97.5273C59.7788 97.9031 59.5393 98.3505 59.0605 98.8696L58.038 99.9785H59.9544V100.374ZM62.8618 98.7463C62.8618 99.3144 62.7648 99.7365 62.5708 100.013C62.3768 100.289 62.0736 100.427 61.6611 100.427C61.2539 100.427 60.9524 100.292 60.7567 100.023C60.5609 99.7522 60.4595 99.3485 60.4525 98.8119V98.1643C60.4525 97.6033 60.5496 97.1865 60.7436 96.9138C60.9376 96.6412 61.2417 96.5048 61.6559 96.5048C62.0666 96.5048 62.369 96.6368 62.563 96.9007C62.757 97.1629 62.8566 97.5684 62.8618 98.1172V98.7463ZM62.3768 98.0831C62.3768 97.6723 62.3192 97.3735 62.2038 97.1865C62.0885 96.9977 61.9058 96.9033 61.6559 96.9033C61.4077 96.9033 61.2268 96.9968 61.1132 97.1838C60.9996 97.3709 60.941 97.6584 60.9376 98.0464V98.8224C60.9376 99.2348 60.997 99.5398 61.1158 99.7373C61.2364 99.9331 61.4182 100.031 61.6611 100.031C61.9006 100.031 62.078 99.9383 62.1933 99.7531C62.3104 99.5678 62.3716 99.2759 62.3768 98.8774V98.0831ZM65.0771 100.374H64.5895V97.1419L63.6116 97.5011V97.0606L65.0011 96.5389H65.0771V100.374ZM68.9624 96.8299L67.3816 100.374H66.873L68.4486 96.9558H66.3827V96.5573H68.9624V96.8299Z" fill="#F5F7F6"/>
<path d="M77.1311 100.374H74.63V100.026L75.9513 98.5576C76.1471 98.3356 76.2817 98.1556 76.3551 98.0175C76.4302 97.8777 76.4678 97.7335 76.4678 97.585C76.4678 97.3857 76.4075 97.2223 76.2869 97.0947C76.1663 96.9671 76.0055 96.9033 75.8045 96.9033C75.5633 96.9033 75.3754 96.9724 75.2409 97.1104C75.108 97.2468 75.0416 97.4373 75.0416 97.682H74.5566C74.5566 97.3307 74.6693 97.0466 74.8948 96.8299C75.122 96.6132 75.4253 96.5048 75.8045 96.5048C76.1593 96.5048 76.4398 96.5983 76.6461 96.7854C76.8523 96.9706 76.9554 97.2179 76.9554 97.5273C76.9554 97.9031 76.716 98.3505 76.2371 98.8696L75.2147 99.9785H77.1311V100.374ZM80.0385 98.7463C80.0385 99.3144 79.9415 99.7365 79.7475 100.013C79.5535 100.289 79.2502 100.427 78.8378 100.427C78.4305 100.427 78.129 100.292 77.9333 100.023C77.7375 99.7522 77.6362 99.3485 77.6292 98.8119V98.1643C77.6292 97.6033 77.7262 97.1865 77.9202 96.9138C78.1142 96.6412 78.4183 96.5048 78.8325 96.5048C79.2432 96.5048 79.5456 96.6368 79.7396 96.9007C79.9336 97.1629 80.0332 97.5684 80.0385 98.1172V98.7463ZM79.5535 98.0831C79.5535 97.6723 79.4958 97.3735 79.3804 97.1865C79.2651 96.9977 79.0825 96.9033 78.8325 96.9033C78.5843 96.9033 78.4034 96.9968 78.2898 97.1838C78.1762 97.3709 78.1177 97.6584 78.1142 98.0464V98.8224C78.1142 99.2348 78.1736 99.5398 78.2925 99.7373C78.4131 99.9331 78.5948 100.031 78.8378 100.031C79.0772 100.031 79.2546 99.9383 79.37 99.7531C79.4871 99.5678 79.5482 99.2759 79.5535 98.8774V98.0831ZM82.2538 100.374H81.7661V97.1419L80.7883 97.5011V97.0606L82.1777 96.5389H82.2538V100.374ZM85.9896 97.5535C85.9896 97.744 85.9389 97.9135 85.8376 98.0621C85.7379 98.2107 85.6025 98.3269 85.4312 98.4108C85.6304 98.4964 85.7877 98.6214 85.9031 98.7857C86.0202 98.95 86.0787 99.1361 86.0787 99.3441C86.0787 99.6744 85.9669 99.9374 85.7432 100.133C85.5212 100.329 85.2285 100.427 84.8649 100.427C84.4979 100.427 84.2034 100.329 83.9814 100.133C83.7612 99.9357 83.6511 99.6727 83.6511 99.3441C83.6511 99.1378 83.707 98.9517 83.8189 98.7857C83.9325 98.6196 84.0889 98.4938 84.2882 98.4082C84.1186 98.3243 83.9849 98.208 83.8871 98.0595C83.7892 97.9109 83.7402 97.7423 83.7402 97.5535C83.7402 97.2319 83.8434 96.9767 84.0496 96.788C84.2558 96.5992 84.5276 96.5048 84.8649 96.5048C85.2005 96.5048 85.4714 96.5992 85.6776 96.788C85.8856 96.9767 85.9896 97.2319 85.9896 97.5535ZM85.5937 99.3336C85.5937 99.1204 85.5256 98.9465 85.3893 98.8119C85.2547 98.6773 85.0782 98.61 84.8597 98.61C84.6412 98.61 84.4656 98.6764 84.3327 98.8093C84.2016 98.9421 84.1361 99.1169 84.1361 99.3336C84.1361 99.5503 84.1999 99.7207 84.3275 99.8448C84.4568 99.9689 84.636 100.031 84.8649 100.031C85.0921 100.031 85.2704 99.9689 85.3997 99.8448C85.5291 99.719 85.5937 99.5486 85.5937 99.3336ZM84.8649 96.9033C84.6744 96.9033 84.5197 96.9628 84.4009 97.0816C84.2838 97.1987 84.2252 97.3586 84.2252 97.5614C84.2252 97.7554 84.2829 97.9127 84.3983 98.0333C84.5154 98.1521 84.6709 98.2115 84.8649 98.2115C85.0589 98.2115 85.2136 98.1521 85.329 98.0333C85.4461 97.9127 85.5046 97.7554 85.5046 97.5614C85.5046 97.3674 85.4443 97.2092 85.3237 97.0868C85.2031 96.9645 85.0502 96.9033 84.8649 96.9033Z" fill="#F5F7F6"/>
<path d="M94.9981 100.374H92.497V100.026L93.8183 98.5576C94.0141 98.3356 94.1487 98.1556 94.2221 98.0175C94.2972 97.8777 94.3348 97.7335 94.3348 97.585C94.3348 97.3857 94.2745 97.2223 94.1539 97.0947C94.0333 96.9671 93.8725 96.9033 93.6715 96.9033C93.4303 96.9033 93.2424 96.9724 93.1079 97.1104C92.975 97.2468 92.9086 97.4373 92.9086 97.682H92.4236C92.4236 97.3307 92.5364 97.0466 92.7618 96.8299C92.989 96.6132 93.2923 96.5048 93.6715 96.5048C94.0263 96.5048 94.3068 96.5983 94.5131 96.7854C94.7193 96.9706 94.8224 97.2179 94.8224 97.5273C94.8224 97.9031 94.583 98.3505 94.1041 98.8696L93.0817 99.9785H94.9981V100.374ZM97.9055 98.7463C97.9055 99.3144 97.8085 99.7365 97.6145 100.013C97.4205 100.289 97.1172 100.427 96.7048 100.427C96.2975 100.427 95.9961 100.292 95.8003 100.023C95.6046 99.7522 95.5032 99.3485 95.4962 98.8119V98.1643C95.4962 97.6033 95.5932 97.1865 95.7872 96.9138C95.9812 96.6412 96.2853 96.5048 96.6995 96.5048C97.1102 96.5048 97.4126 96.6368 97.6066 96.9007C97.8006 97.1629 97.9002 97.5684 97.9055 98.1172V98.7463ZM97.4205 98.0831C97.4205 97.6723 97.3628 97.3735 97.2474 97.1865C97.1321 96.9977 96.9495 96.9033 96.6995 96.9033C96.4513 96.9033 96.2704 96.9968 96.1568 97.1838C96.0432 97.3709 95.9847 97.6584 95.9812 98.0464V98.8224C95.9812 99.2348 96.0406 99.5398 96.1595 99.7373C96.2801 99.9331 96.4618 100.031 96.7048 100.031C96.9442 100.031 97.1216 99.9383 97.237 99.7531C97.3541 99.5678 97.4152 99.2759 97.4205 98.8774V98.0831ZM100.121 100.374H99.6331V97.1419L98.6553 97.5011V97.0606L100.045 96.5389H100.121V100.374ZM103.4 98.6965C103.299 98.8171 103.178 98.9141 103.036 98.9875C102.896 99.0609 102.742 99.0976 102.575 99.0976C102.354 99.0976 102.162 99.0435 101.998 98.9351C101.835 98.8267 101.709 98.6747 101.62 98.4789C101.531 98.2814 101.487 98.0638 101.487 97.8262C101.487 97.571 101.535 97.3411 101.631 97.1367C101.729 96.9322 101.867 96.7757 102.045 96.6674C102.223 96.559 102.431 96.5048 102.669 96.5048C103.047 96.5048 103.344 96.6464 103.56 96.9295C103.779 97.2109 103.888 97.5954 103.888 98.0831V98.2246C103.888 98.9674 103.741 99.5101 103.448 99.8527C103.154 100.193 102.711 100.368 102.118 100.377H102.024V99.968H102.126C102.527 99.961 102.834 99.8571 103.049 99.6561C103.264 99.4533 103.381 99.1335 103.4 98.6965ZM102.653 98.6965C102.816 98.6965 102.965 98.6467 103.102 98.5471C103.24 98.4475 103.34 98.3243 103.403 98.1775V97.9834C103.403 97.6654 103.334 97.4067 103.196 97.2074C103.058 97.0082 102.883 96.9086 102.672 96.9086C102.458 96.9086 102.287 96.9907 102.158 97.155C102.028 97.3176 101.964 97.5325 101.964 97.7999C101.964 98.0604 102.026 98.2753 102.15 98.4449C102.276 98.6126 102.444 98.6965 102.653 98.6965Z" fill="#F5F7F6"/>
<path d="M113.401 100.374H110.9V100.026L112.221 98.5576C112.417 98.3356 112.552 98.1556 112.625 98.0175C112.7 97.8777 112.738 97.7335 112.738 97.585C112.738 97.3857 112.678 97.2223 112.557 97.0947C112.436 96.9671 112.276 96.9033 112.075 96.9033C111.833 96.9033 111.646 96.9724 111.511 97.1104C111.378 97.2468 111.312 97.4373 111.312 97.682H110.827C110.827 97.3307 110.939 97.0466 111.165 96.8299C111.392 96.6132 111.695 96.5048 112.075 96.5048C112.429 96.5048 112.71 96.5983 112.916 96.7854C113.122 96.9706 113.226 97.2179 113.226 97.5273C113.226 97.9031 112.986 98.3505 112.507 98.8696L111.485 99.9785H113.401V100.374ZM116.309 98.7463C116.309 99.3144 116.212 99.7365 116.018 100.013C115.824 100.289 115.52 100.427 115.108 100.427C114.701 100.427 114.399 100.292 114.203 100.023C114.008 99.7522 113.906 99.3485 113.899 98.8119V98.1643C113.899 97.6033 113.996 97.1865 114.19 96.9138C114.384 96.6412 114.688 96.5048 115.103 96.5048C115.513 96.5048 115.816 96.6368 116.01 96.9007C116.204 97.1629 116.303 97.5684 116.309 98.1172V98.7463ZM115.824 98.0831C115.824 97.6723 115.766 97.3735 115.651 97.1865C115.535 96.9977 115.353 96.9033 115.103 96.9033C114.854 96.9033 114.674 96.9968 114.56 97.1838C114.446 97.3709 114.388 97.6584 114.384 98.0464V98.8224C114.384 99.2348 114.444 99.5398 114.563 99.7373C114.683 99.9331 114.865 100.031 115.108 100.031C115.347 100.031 115.525 99.9383 115.64 99.7531C115.757 99.5678 115.818 99.2759 115.824 98.8774V98.0831ZM119.431 100.374H116.93V100.026L118.251 98.5576C118.447 98.3356 118.582 98.1556 118.655 98.0175C118.73 97.8777 118.768 97.7335 118.768 97.585C118.768 97.3857 118.707 97.2223 118.587 97.0947C118.466 96.9671 118.305 96.9033 118.104 96.9033C117.863 96.9033 117.675 96.9724 117.541 97.1104C117.408 97.2468 117.341 97.4373 117.341 97.682H116.856C116.856 97.3307 116.969 97.0466 117.195 96.8299C117.422 96.6132 117.725 96.5048 118.104 96.5048C118.459 96.5048 118.74 96.5983 118.946 96.7854C119.152 96.9706 119.255 97.2179 119.255 97.5273C119.255 97.9031 119.016 98.3505 118.537 98.8696L117.515 99.9785H119.431V100.374ZM122.338 98.7463C122.338 99.3144 122.241 99.7365 122.047 100.013C121.853 100.289 121.55 100.427 121.138 100.427C120.73 100.427 120.429 100.292 120.233 100.023C120.037 99.7522 119.936 99.3485 119.929 98.8119V98.1643C119.929 97.6033 120.026 97.1865 120.22 96.9138C120.414 96.6412 120.718 96.5048 121.132 96.5048C121.543 96.5048 121.845 96.6368 122.039 96.9007C122.233 97.1629 122.333 97.5684 122.338 98.1172V98.7463ZM121.853 98.0831C121.853 97.6723 121.796 97.3735 121.68 97.1865C121.565 96.9977 121.382 96.9033 121.132 96.9033C120.884 96.9033 120.703 96.9968 120.59 97.1838C120.476 97.3709 120.418 97.6584 120.414 98.0464V98.8224C120.414 99.2348 120.473 99.5398 120.592 99.7373C120.713 99.9331 120.895 100.031 121.138 100.031C121.377 100.031 121.554 99.9383 121.67 99.7531C121.787 99.5678 121.848 99.2759 121.853 98.8774V98.0831Z" fill="#F5F7F6"/>
<path d="M131.65 100.374H129.149V100.026L130.471 98.5576C130.666 98.3356 130.801 98.1556 130.874 98.0175C130.949 97.8777 130.987 97.7335 130.987 97.585C130.987 97.3857 130.927 97.2223 130.806 97.0947C130.686 96.9671 130.525 96.9033 130.324 96.9033C130.083 96.9033 129.895 96.9724 129.76 97.1104C129.627 97.2468 129.561 97.4373 129.561 97.682H129.076C129.076 97.3307 129.189 97.0466 129.414 96.8299C129.641 96.6132 129.944 96.5048 130.324 96.5048C130.679 96.5048 130.959 96.5983 131.165 96.7854C131.372 96.9706 131.475 97.2179 131.475 97.5273C131.475 97.9031 131.235 98.3505 130.756 98.8696L129.734 99.9785H131.65V100.374ZM134.558 98.7463C134.558 99.3144 134.461 99.7365 134.267 100.013C134.073 100.289 133.769 100.427 133.357 100.427C132.95 100.427 132.648 100.292 132.453 100.023C132.257 99.7522 132.155 99.3485 132.148 98.8119V98.1643C132.148 97.6033 132.245 97.1865 132.439 96.9138C132.633 96.6412 132.938 96.5048 133.352 96.5048C133.762 96.5048 134.065 96.6368 134.259 96.9007C134.453 97.1629 134.552 97.5684 134.558 98.1172V98.7463ZM134.073 98.0831C134.073 97.6723 134.015 97.3735 133.9 97.1865C133.784 96.9977 133.602 96.9033 133.352 96.9033C133.104 96.9033 132.923 96.9968 132.809 97.1838C132.695 97.3709 132.637 97.6584 132.633 98.0464V98.8224C132.633 99.2348 132.693 99.5398 132.812 99.7373C132.932 99.9331 133.114 100.031 133.357 100.031C133.596 100.031 133.774 99.9383 133.889 99.7531C134.006 99.5678 134.067 99.2759 134.073 98.8774V98.0831ZM137.68 100.374H135.179V100.026L136.5 98.5576C136.696 98.3356 136.831 98.1556 136.904 98.0175C136.979 97.8777 137.017 97.7335 137.017 97.585C137.017 97.3857 136.957 97.2223 136.836 97.0947C136.715 96.9671 136.555 96.9033 136.354 96.9033C136.112 96.9033 135.924 96.9724 135.79 97.1104C135.657 97.2468 135.591 97.4373 135.591 97.682H135.106C135.106 97.3307 135.218 97.0466 135.444 96.8299C135.671 96.6132 135.974 96.5048 136.354 96.5048C136.708 96.5048 136.989 96.5983 137.195 96.7854C137.401 96.9706 137.504 97.2179 137.504 97.5273C137.504 97.9031 137.265 98.3505 136.786 98.8696L135.764 99.9785H137.68V100.374ZM139.788 100.374H139.3V97.1419L138.322 97.5011V97.0606L139.712 96.5389H139.788V100.374Z" fill="#F5F7F6"/>
<path d="M148.943 100.374H146.441V100.026L147.763 98.5576C147.959 98.3356 148.093 98.1556 148.167 98.0175C148.242 97.8777 148.279 97.7335 148.279 97.585C148.279 97.3857 148.219 97.2223 148.098 97.0947C147.978 96.9671 147.817 96.9033 147.616 96.9033C147.375 96.9033 147.187 96.9724 147.052 97.1104C146.919 97.2468 146.853 97.4373 146.853 97.682H146.368C146.368 97.3307 146.481 97.0466 146.706 96.8299C146.933 96.6132 147.237 96.5048 147.616 96.5048C147.971 96.5048 148.251 96.5983 148.458 96.7854C148.664 96.9706 148.767 97.2179 148.767 97.5273C148.767 97.9031 148.527 98.3505 148.049 98.8696L147.026 99.9785H148.943V100.374ZM151.85 98.7463C151.85 99.3144 151.753 99.7365 151.559 100.013C151.365 100.289 151.062 100.427 150.649 100.427C150.242 100.427 149.941 100.292 149.745 100.023C149.549 99.7522 149.448 99.3485 149.441 98.8119V98.1643C149.441 97.6033 149.538 97.1865 149.732 96.9138C149.926 96.6412 150.23 96.5048 150.644 96.5048C151.055 96.5048 151.357 96.6368 151.551 96.9007C151.745 97.1629 151.845 97.5684 151.85 98.1172V98.7463ZM151.365 98.0831C151.365 97.6723 151.307 97.3735 151.192 97.1865C151.077 96.9977 150.894 96.9033 150.644 96.9033C150.396 96.9033 150.215 96.9968 150.101 97.1838C149.988 97.3709 149.929 97.6584 149.926 98.0464V98.8224C149.926 99.2348 149.985 99.5398 150.104 99.7373C150.225 99.9331 150.406 100.031 150.649 100.031C150.889 100.031 151.066 99.9383 151.181 99.7531C151.299 99.5678 151.36 99.2759 151.365 98.8774V98.0831ZM154.972 100.374H152.471V100.026L153.793 98.5576C153.988 98.3356 154.123 98.1556 154.196 98.0175C154.271 97.8777 154.309 97.7335 154.309 97.585C154.309 97.3857 154.249 97.2223 154.128 97.0947C154.008 96.9671 153.847 96.9033 153.646 96.9033C153.405 96.9033 153.217 96.9724 153.082 97.1104C152.949 97.2468 152.883 97.4373 152.883 97.682H152.398C152.398 97.3307 152.511 97.0466 152.736 96.8299C152.963 96.6132 153.267 96.5048 153.646 96.5048C154.001 96.5048 154.281 96.5983 154.487 96.7854C154.694 96.9706 154.797 97.2179 154.797 97.5273C154.797 97.9031 154.557 98.3505 154.078 98.8696L153.056 99.9785H154.972V100.374ZM157.987 100.374H155.486V100.026L156.807 98.5576C157.003 98.3356 157.138 98.1556 157.211 98.0175C157.286 97.8777 157.324 97.7335 157.324 97.585C157.324 97.3857 157.264 97.2223 157.143 97.0947C157.022 96.9671 156.862 96.9033 156.661 96.9033C156.419 96.9033 156.232 96.9724 156.097 97.1104C155.964 97.2468 155.898 97.4373 155.898 97.682H155.413C155.413 97.3307 155.525 97.0466 155.751 96.8299C155.978 96.6132 156.281 96.5048 156.661 96.5048C157.015 96.5048 157.296 96.5983 157.502 96.7854C157.708 96.9706 157.812 97.2179 157.812 97.5273C157.812 97.9031 157.572 98.3505 157.093 98.8696L156.071 99.9785H157.987V100.374Z" fill="#F5F7F6"/>
<path d="M166.273 100.374H163.772V100.026L165.093 98.5576C165.289 98.3356 165.423 98.1556 165.497 98.0175C165.572 97.8777 165.61 97.7335 165.61 97.585C165.61 97.3857 165.549 97.2223 165.429 97.0947C165.308 96.9671 165.147 96.9033 164.946 96.9033C164.705 96.9033 164.517 96.9724 164.383 97.1104C164.25 97.2468 164.183 97.4373 164.183 97.682H163.698C163.698 97.3307 163.811 97.0466 164.037 96.8299C164.264 96.6132 164.567 96.5048 164.946 96.5048C165.301 96.5048 165.582 96.5983 165.788 96.7854C165.994 96.9706 166.097 97.2179 166.097 97.5273C166.097 97.9031 165.858 98.3505 165.379 98.8696L164.356 99.9785H166.273V100.374ZM169.18 98.7463C169.18 99.3144 169.083 99.7365 168.889 100.013C168.695 100.289 168.392 100.427 167.98 100.427C167.572 100.427 167.271 100.292 167.075 100.023C166.879 99.7522 166.778 99.3485 166.771 98.8119V98.1643C166.771 97.6033 166.868 97.1865 167.062 96.9138C167.256 96.6412 167.56 96.5048 167.974 96.5048C168.385 96.5048 168.687 96.6368 168.881 96.9007C169.075 97.1629 169.175 97.5684 169.18 98.1172V98.7463ZM168.695 98.0831C168.695 97.6723 168.638 97.3735 168.522 97.1865C168.407 96.9977 168.224 96.9033 167.974 96.9033C167.726 96.9033 167.545 96.9968 167.432 97.1838C167.318 97.3709 167.259 97.6584 167.256 98.0464V98.8224C167.256 99.2348 167.315 99.5398 167.434 99.7373C167.555 99.9331 167.737 100.031 167.98 100.031C168.219 100.031 168.396 99.9383 168.512 99.7531C168.629 99.5678 168.69 99.2759 168.695 98.8774V98.0831ZM172.303 100.374H169.802V100.026L171.123 98.5576C171.319 98.3356 171.453 98.1556 171.527 98.0175C171.602 97.8777 171.639 97.7335 171.639 97.585C171.639 97.3857 171.579 97.2223 171.458 97.0947C171.338 96.9671 171.177 96.9033 170.976 96.9033C170.735 96.9033 170.547 96.9724 170.412 97.1104C170.28 97.2468 170.213 97.4373 170.213 97.682H169.728C169.728 97.3307 169.841 97.0466 170.066 96.8299C170.294 96.6132 170.597 96.5048 170.976 96.5048C171.331 96.5048 171.611 96.5983 171.818 96.7854C172.024 96.9706 172.127 97.2179 172.127 97.5273C172.127 97.9031 171.888 98.3505 171.409 98.8696L170.386 99.9785H172.303V100.374ZM173.522 98.2299H173.886C174.115 98.2264 174.295 98.1661 174.426 98.049C174.557 97.9319 174.623 97.7737 174.623 97.5745C174.623 97.127 174.4 96.9033 173.954 96.9033C173.745 96.9033 173.577 96.9636 173.451 97.0842C173.327 97.2031 173.265 97.3612 173.265 97.5587H172.78C172.78 97.2564 172.89 97.0056 173.11 96.8063C173.332 96.6053 173.613 96.5048 173.954 96.5048C174.314 96.5048 174.597 96.6001 174.801 96.7906C175.006 96.9811 175.108 97.2459 175.108 97.585C175.108 97.751 175.054 97.9118 174.945 98.0673C174.839 98.2229 174.693 98.3391 174.507 98.416C174.717 98.4824 174.879 98.5925 174.992 98.7463C175.108 98.9002 175.165 99.088 175.165 99.31C175.165 99.6526 175.054 99.9243 174.83 100.125C174.606 100.326 174.315 100.427 173.957 100.427C173.599 100.427 173.307 100.33 173.081 100.136C172.858 99.9418 172.746 99.6858 172.746 99.3677H173.233C173.233 99.5687 173.299 99.7295 173.43 99.8501C173.561 99.9707 173.737 100.031 173.957 100.031C174.191 100.031 174.37 99.9698 174.494 99.8474C174.618 99.7251 174.68 99.5494 174.68 99.3205C174.68 99.0985 174.612 98.9281 174.476 98.8093C174.34 98.6904 174.143 98.6292 173.886 98.6258H173.522V98.2299Z" fill="#F5F7F6"/>
<path d="M184.101 100.374H181.6V100.026L182.922 98.5576C183.117 98.3356 183.252 98.1556 183.325 98.0175C183.4 97.8777 183.438 97.7335 183.438 97.585C183.438 97.3857 183.378 97.2223 183.257 97.0947C183.137 96.9671 182.976 96.9033 182.775 96.9033C182.534 96.9033 182.346 96.9724 182.211 97.1104C182.078 97.2468 182.012 97.4373 182.012 97.682H181.527C181.527 97.3307 181.64 97.0466 181.865 96.8299C182.092 96.6132 182.396 96.5048 182.775 96.5048C183.13 96.5048 183.41 96.5983 183.616 96.7854C183.823 96.9706 183.926 97.2179 183.926 97.5273C183.926 97.9031 183.686 98.3505 183.207 98.8696L182.185 99.9785H184.101V100.374ZM187.009 98.7463C187.009 99.3144 186.912 99.7365 186.718 100.013C186.524 100.289 186.221 100.427 185.808 100.427C185.401 100.427 185.099 100.292 184.904 100.023C184.708 99.7522 184.606 99.3485 184.599 98.8119V98.1643C184.599 97.6033 184.696 97.1865 184.89 96.9138C185.084 96.6412 185.389 96.5048 185.803 96.5048C186.214 96.5048 186.516 96.6368 186.71 96.9007C186.904 97.1629 187.004 97.5684 187.009 98.1172V98.7463ZM186.524 98.0831C186.524 97.6723 186.466 97.3735 186.351 97.1865C186.235 96.9977 186.053 96.9033 185.803 96.9033C185.555 96.9033 185.374 96.9968 185.26 97.1838C185.147 97.3709 185.088 97.6584 185.084 98.0464V98.8224C185.084 99.2348 185.144 99.5398 185.263 99.7373C185.383 99.9331 185.565 100.031 185.808 100.031C186.047 100.031 186.225 99.9383 186.34 99.7531C186.457 99.5678 186.519 99.2759 186.524 98.8774V98.0831ZM190.131 100.374H187.63V100.026L188.951 98.5576C189.147 98.3356 189.282 98.1556 189.355 98.0175C189.43 97.8777 189.468 97.7335 189.468 97.585C189.468 97.3857 189.408 97.2223 189.287 97.0947C189.166 96.9671 189.006 96.9033 188.805 96.9033C188.563 96.9033 188.376 96.9724 188.241 97.1104C188.108 97.2468 188.042 97.4373 188.042 97.682H187.557C187.557 97.3307 187.669 97.0466 187.895 96.8299C188.122 96.6132 188.425 96.5048 188.805 96.5048C189.159 96.5048 189.44 96.5983 189.646 96.7854C189.852 96.9706 189.955 97.2179 189.955 97.5273C189.955 97.9031 189.716 98.3505 189.237 98.8696L188.215 99.9785H190.131V100.374ZM192.692 99.0924H193.222V99.4883H192.692V100.374H192.205V99.4883H190.467V99.2025L192.176 96.5573H192.692V99.0924ZM191.017 99.0924H192.205V97.2206L192.147 97.3254L191.017 99.0924Z" fill="#F5F7F6"/>
<path d="M7.28378 98.965C7.28378 99.533 7.18678 99.9551 6.99278 100.231C6.79877 100.507 6.49554 100.645 6.08307 100.645C5.67584 100.645 5.37435 100.511 5.1786 100.242C4.98285 99.9708 4.88148 99.5671 4.87449 99.0305V98.383C4.87449 97.8219 4.97149 97.4051 5.16549 97.1324C5.35949 96.8598 5.6636 96.7235 6.07782 96.7235C6.48855 96.7235 6.79091 96.8554 6.98491 97.1193C7.17891 97.3815 7.27854 97.787 7.28378 98.3358V98.965ZM6.79877 98.3017C6.79877 97.891 6.7411 97.5921 6.62575 97.4051C6.51039 97.2163 6.32775 97.122 6.07782 97.122C5.82964 97.122 5.64875 97.2155 5.53514 97.4025C5.42154 97.5895 5.36299 97.877 5.35949 98.265V99.041C5.35949 99.4535 5.41892 99.7585 5.53776 99.956C5.65836 100.152 5.84013 100.25 6.08307 100.25C6.32251 100.25 6.49991 100.157 6.61526 99.9717C6.73236 99.7864 6.79353 99.4945 6.79877 99.0961V98.3017Z" fill="#F5F7F6"/>
<path d="M2.50566 84.6788H2.01804V81.4463L1.04016 81.8055V81.3651L2.42963 80.8434H2.50566V84.6788ZM6.32015 83.0508C6.32015 83.6188 6.22315 84.0409 6.02915 84.317C5.83515 84.5932 5.53191 84.7313 5.11944 84.7313C4.71221 84.7313 4.41072 84.5967 4.21497 84.3275C4.01922 84.0566 3.91785 83.6529 3.91086 83.1163V82.4688C3.91086 81.9078 4.00786 81.4909 4.20187 81.2183C4.39587 80.9456 4.69998 80.8093 5.1142 80.8093C5.52492 80.8093 5.82728 80.9412 6.02129 81.2052C6.21529 81.4673 6.31491 81.8728 6.32015 82.4216V83.0508ZM5.83515 82.3875C5.83515 81.9768 5.77747 81.6779 5.66212 81.4909C5.54677 81.3022 5.36413 81.2078 5.1142 81.2078C4.86602 81.2078 4.68512 81.3013 4.57152 81.4883C4.45791 81.6753 4.39936 81.9628 4.39587 82.3508V83.1268C4.39587 83.5393 4.45529 83.8443 4.57414 84.0418C4.69473 84.2375 4.8765 84.3354 5.11944 84.3354C5.35888 84.3354 5.53628 84.2428 5.65163 84.0575C5.76873 83.8722 5.82991 83.5804 5.83515 83.1819V82.3875Z" fill="#F5F7F6"/>
<path d="M3.41275 71.5172H0.911701V71.1685L2.23301 69.7004C2.42876 69.4784 2.56334 69.2984 2.63674 69.1604C2.7119 69.0205 2.74947 68.8763 2.74947 68.7278C2.74947 68.5285 2.68918 68.3651 2.56858 68.2375C2.44799 68.1099 2.28719 68.0462 2.0862 68.0462C1.84501 68.0462 1.65712 68.1152 1.52254 68.2533C1.38971 68.3896 1.3233 68.5801 1.3233 68.8248H0.838295C0.838295 68.4735 0.951026 68.1895 1.17649 67.9727C1.4037 67.756 1.70693 67.6477 2.0862 67.6477C2.44099 67.6477 2.72151 67.7412 2.92775 67.9282C3.13398 68.1134 3.2371 68.3608 3.2371 68.6701C3.2371 69.0459 2.99766 69.4933 2.51877 70.0124L1.49633 71.1213H3.41275V71.5172ZM6.32015 69.8892C6.32015 70.4572 6.22315 70.8793 6.02915 71.1554C5.83515 71.4316 5.53191 71.5696 5.11944 71.5696C4.71221 71.5696 4.41072 71.4351 4.21497 71.1659C4.01922 70.895 3.91785 70.4913 3.91086 69.9547V69.3072C3.91086 68.7461 4.00786 68.3293 4.20187 68.0566C4.39587 67.784 4.69998 67.6477 5.1142 67.6477C5.52492 67.6477 5.82728 67.7796 6.02129 68.0435C6.21529 68.3057 6.31491 68.7112 6.32015 69.26V69.8892ZM5.83515 69.2259C5.83515 68.8152 5.77747 68.5163 5.66212 68.3293C5.54677 68.1405 5.36413 68.0462 5.1142 68.0462C4.86602 68.0462 4.68512 68.1397 4.57152 68.3267C4.45791 68.5137 4.39936 68.8012 4.39587 69.1892V69.9652C4.39587 70.3777 4.45529 70.6827 4.57414 70.8802C4.69473 71.0759 4.8765 71.1738 5.11944 71.1738C5.35888 71.1738 5.53628 71.0811 5.65163 70.8959C5.76873 70.7106 5.82991 70.4187 5.83515 70.0203V69.2259Z" fill="#F5F7F6"/>
<path d="M1.61692 55.7532H1.98133C2.21029 55.7497 2.39031 55.6894 2.52139 55.5723C2.65247 55.4552 2.71801 55.297 2.71801 55.0978C2.71801 54.6504 2.49517 54.4266 2.0495 54.4266C1.83976 54.4266 1.67198 54.4869 1.54614 54.6075C1.42205 54.7264 1.36 54.8846 1.36 55.0821H0.874998C0.874998 54.7797 0.985107 54.5289 1.20533 54.3296C1.42729 54.1287 1.70868 54.0282 2.0495 54.0282C2.40953 54.0282 2.6918 54.1234 2.89629 54.3139C3.10077 54.5044 3.20302 54.7692 3.20302 55.1083C3.20302 55.2743 3.14884 55.4351 3.04048 55.5907C2.93386 55.7462 2.78792 55.8624 2.60266 55.9393C2.81239 56.0058 2.97406 56.1159 3.08767 56.2697C3.20302 56.4235 3.26069 56.6114 3.26069 56.8333C3.26069 57.1759 3.14884 57.4477 2.92512 57.6486C2.70141 57.8496 2.41041 57.9501 2.05212 57.9501C1.69383 57.9501 1.40195 57.8531 1.17649 57.6591C0.952774 57.4651 0.840917 57.2091 0.840917 56.891H1.32854C1.32854 57.092 1.39408 57.2528 1.52517 57.3734C1.65625 57.494 1.8319 57.5543 2.05212 57.5543C2.28632 57.5543 2.46546 57.4931 2.58955 57.3708C2.71364 57.2484 2.77569 57.0728 2.77569 56.8438C2.77569 56.6218 2.70753 56.4514 2.5712 56.3326C2.43488 56.2137 2.23825 56.1526 1.98133 56.1491H1.61692V55.7532ZM6.32015 56.2697C6.32015 56.8377 6.22315 57.2598 6.02915 57.5359C5.83515 57.8121 5.53191 57.9501 5.11944 57.9501C4.71221 57.9501 4.41072 57.8156 4.21497 57.5464C4.01922 57.2755 3.91785 56.8718 3.91086 56.3352V55.6877C3.91086 55.1266 4.00786 54.7098 4.20187 54.4371C4.39587 54.1645 4.69998 54.0282 5.1142 54.0282C5.52492 54.0282 5.82728 54.1601 6.02129 54.424C6.21529 54.6862 6.31491 55.0917 6.32015 55.6405V56.2697ZM5.83515 55.6064C5.83515 55.1957 5.77747 54.8968 5.66212 54.7098C5.54677 54.521 5.36413 54.4266 5.1142 54.4266C4.86602 54.4266 4.68512 54.5202 4.57152 54.7072C4.45791 54.8942 4.39936 55.1817 4.39587 55.5697V56.3457C4.39587 56.7582 4.45529 57.0631 4.57414 57.2606C4.69473 57.4564 4.8765 57.5543 5.11944 57.5543C5.35888 57.5543 5.53628 57.4616 5.65163 57.2764C5.76873 57.0911 5.82991 56.7992 5.83515 56.4007V55.6064Z" fill="#F5F7F6"/>
<path d="M2.95921 43.4561H3.48878V43.8519H2.95921V44.738H2.47158V43.8519H0.73343V43.5662L2.44274 40.9209H2.95921V43.4561ZM1.28397 43.4561H2.47158V41.5842L2.4139 41.6891L1.28397 43.4561ZM6.32015 43.11C6.32015 43.678 6.22315 44.1001 6.02915 44.3763C5.83515 44.6524 5.53191 44.7905 5.11944 44.7905C4.71221 44.7905 4.41072 44.6559 4.21497 44.3867C4.01922 44.1158 3.91785 43.7121 3.91086 43.1755V42.528C3.91086 41.967 4.00786 41.5501 4.20187 41.2775C4.39587 41.0048 4.69998 40.8685 5.1142 40.8685C5.52492 40.8685 5.82728 41.0004 6.02129 41.2644C6.21529 41.5265 6.31491 41.932 6.32015 42.4808V43.11ZM5.83515 42.4467C5.83515 42.036 5.77747 41.7371 5.66212 41.5501C5.54677 41.3614 5.36413 41.267 5.1142 41.267C4.86602 41.267 4.68512 41.3605 4.57152 41.5475C4.45791 41.7345 4.39936 42.022 4.39587 42.41V43.186C4.39587 43.5985 4.45529 43.9035 4.57414 44.101C4.69473 44.2967 4.8765 44.3946 5.11944 44.3946C5.35888 44.3946 5.53628 44.302 5.65163 44.1167C5.76873 43.9314 5.82991 43.6396 5.83515 43.2411V42.4467Z" fill="#F5F7F6"/>
<path d="M1.13454 30.1984L1.32854 28.2951H3.28429V28.7434H1.74014L1.62479 29.7842C1.8118 29.6741 2.02415 29.619 2.26185 29.619C2.60965 29.619 2.8858 29.7344 3.09029 29.9651C3.29478 30.194 3.39702 30.5042 3.39702 30.8957C3.39702 31.289 3.29041 31.5992 3.07718 31.8264C2.8657 32.0519 2.56945 32.1646 2.18844 32.1646C1.85112 32.1646 1.57585 32.0711 1.36262 31.8841C1.1494 31.6971 1.02793 31.4384 0.998216 31.1081H1.457C1.48672 31.3266 1.56449 31.4917 1.69033 31.6036C1.81617 31.7137 1.98221 31.7687 2.18844 31.7687C2.4139 31.7687 2.59043 31.6918 2.71801 31.538C2.84735 31.3842 2.91202 31.1719 2.91202 30.901C2.91202 30.6458 2.84211 30.4413 2.70228 30.2875C2.56421 30.132 2.37982 30.0542 2.14912 30.0542C1.93764 30.0542 1.7716 30.1005 1.65101 30.1931L1.52254 30.298L1.13454 30.1984ZM6.32015 30.4841C6.32015 31.0522 6.22315 31.4742 6.02915 31.7504C5.83515 32.0265 5.53191 32.1646 5.11944 32.1646C4.71221 32.1646 4.41072 32.03 4.21497 31.7609C4.01922 31.49 3.91785 31.0862 3.91086 30.5497V29.9021C3.91086 29.3411 4.00786 28.9243 4.20187 28.6516C4.39587 28.379 4.69998 28.2426 5.1142 28.2426C5.52492 28.2426 5.82728 28.3746 6.02129 28.6385C6.21529 28.9007 6.31491 29.3061 6.32015 29.8549V30.4841ZM5.83515 29.8209C5.83515 29.4101 5.77747 29.1113 5.66212 28.9243C5.54677 28.7355 5.36413 28.6411 5.1142 28.6411C4.86602 28.6411 4.68512 28.7346 4.57152 28.9216C4.45791 29.1087 4.39936 29.3962 4.39587 29.7842V30.5602C4.39587 30.9726 4.45529 31.2776 4.57414 31.4751C4.69473 31.6709 4.8765 31.7687 5.11944 31.7687C5.35888 31.7687 5.53628 31.6761 5.65163 31.4909C5.76873 31.3056 5.82991 31.0137 5.83515 30.6152V29.8209Z" fill="#F5F7F6"/>
<path d="M2.81502 15.1323V15.5439H2.72588C2.34836 15.5509 2.04775 15.6627 1.82403 15.8795C1.60032 16.0962 1.47099 16.4012 1.43603 16.7944C1.63702 16.5637 1.91142 16.4484 2.25923 16.4484C2.5913 16.4484 2.85609 16.5655 3.05358 16.7997C3.25283 17.0339 3.35245 17.3362 3.35245 17.7067C3.35245 18.1 3.24496 18.4146 3.02999 18.6505C2.81676 18.8865 2.53013 19.0045 2.17009 19.0045C1.80481 19.0045 1.50856 18.8646 1.28135 18.585C1.05414 18.3036 0.940539 17.9418 0.940539 17.4996V17.3135C0.940539 16.6109 1.08997 16.0743 1.38884 15.7038C1.68946 15.3315 2.13601 15.141 2.7285 15.1323H2.81502ZM2.17796 16.8521C2.01192 16.8521 1.85899 16.9019 1.71917 17.0015C1.57935 17.1011 1.48235 17.2261 1.42817 17.3764V17.5547C1.42817 17.8693 1.49895 18.1227 1.64052 18.315C1.78209 18.5072 1.95861 18.6033 2.17009 18.6033C2.38856 18.6033 2.55984 18.523 2.68393 18.3622C2.80977 18.2014 2.87269 17.9908 2.87269 17.7303C2.87269 17.4682 2.8089 17.2567 2.68131 17.0959C2.55547 16.9334 2.38769 16.8521 2.17796 16.8521ZM6.32015 17.324C6.32015 17.892 6.22315 18.3141 6.02915 18.5902C5.83515 18.8664 5.53191 19.0045 5.11944 19.0045C4.71221 19.0045 4.41072 18.8699 4.21497 18.6007C4.01922 18.3298 3.91785 17.9261 3.91086 17.3895V16.742C3.91086 16.1809 4.00786 15.7641 4.20187 15.4915C4.39587 15.2188 4.69998 15.0825 5.1142 15.0825C5.52492 15.0825 5.82728 15.2144 6.02129 15.4783C6.21529 15.7405 6.31491 16.146 6.32015 16.6948V17.324ZM5.83515 16.6607C5.83515 16.25 5.77747 15.9511 5.66212 15.7641C5.54677 15.5753 5.36413 15.481 5.1142 15.481C4.86602 15.481 4.68512 15.5745 4.57152 15.7615C4.45791 15.9485 4.39936 16.236 4.39587 16.624V17.4C4.39587 17.8125 4.45529 18.1175 4.57414 18.315C4.69473 18.5107 4.8765 18.6086 5.11944 18.6086C5.35888 18.6086 5.53628 18.516 5.65163 18.3307C5.76873 18.1454 5.82991 17.8536 5.83515 17.4551V16.6607Z" fill="#F5F7F6"/>
<path d="M3.37605 1.78769L1.7952 5.33215H1.2866L2.8622 1.91353H0.796349V1.51504H3.37605V1.78769ZM6.32015 3.70411C6.32015 4.27214 6.22315 4.69422 6.02915 4.97037C5.83515 5.24651 5.53191 5.38459 5.11944 5.38459C4.71221 5.38459 4.41072 5.25001 4.21497 4.98085C4.01922 4.70995 3.91785 4.30622 3.91086 3.76965V3.12211C3.91086 2.56108 4.00786 2.14423 4.20187 1.87158C4.39587 1.59893 4.69998 1.46261 5.1142 1.46261C5.52492 1.46261 5.82728 1.59456 6.02129 1.85847C6.21529 2.12064 6.31491 2.52612 6.32015 3.07492V3.70411ZM5.83515 3.04084C5.83515 2.63011 5.77747 2.33124 5.66212 2.14423C5.54677 1.95548 5.36413 1.8611 5.1142 1.8611C4.86602 1.8611 4.68512 1.9546 4.57152 2.14161C4.45791 2.32862 4.39936 2.61613 4.39587 3.00413V3.78014C4.39587 4.19261 4.45529 4.4976 4.57414 4.69509C4.69473 4.89084 4.8765 4.98872 5.11944 4.98872C5.35888 4.98872 5.53628 4.89609 5.65163 4.71082C5.76873 4.52556 5.82991 4.23368 5.83515 3.83519V3.04084Z" fill="#F5F7F6"/>
<path d="M186.65 37.0426H168.426L150.825 24.1871L133.379 37.9591L115.317 31.3813L98.1787 57.3924H80.1243L62.3862 70.5155L45.0941 50.4739L27.4939 57.2058V90.8328H186.764L186.65 37.0426Z" fill="url(#paint0_linear_0_1403)"/>
<path d="M62.3132 71.14L44.9562 51.0173L27.6561 57.6356L27.3317 56.7759L45.232 49.9305L62.451 69.899L79.9702 56.9381H97.9354L115.138 30.8216L133.298 37.44L150.809 23.6112L168.572 36.5802H186.65V37.5049H168.271L150.833 24.7629L133.46 38.4781L115.503 31.9328L98.4302 57.8546H80.2703L62.3132 71.14Z" fill="url(#paint1_linear_0_1403)"/>
<path d="M29.4567 57.2058C29.4567 58.2927 28.5807 59.1686 27.4939 59.1686C26.4071 59.1686 25.5311 58.2927 25.5311 57.2058C25.5311 56.119 26.4071 55.243 27.4939 55.243C28.5807 55.243 29.4567 56.119 29.4567 57.2058Z" fill="#F5F7F6"/>
<path d="M47.0569 50.474C47.0569 51.5608 46.181 52.4367 45.0942 52.4367C44.0073 52.4367 43.1313 51.5608 43.1313 50.474C43.1313 49.3871 44.0073 48.5112 45.0942 48.5112C46.181 48.5031 47.0569 49.3871 47.0569 50.474Z" fill="#F5F7F6"/>
<path d="M64.349 70.5155C64.349 71.6024 63.4649 72.4783 62.3862 72.4783C61.2994 72.4783 60.4234 71.5943 60.4234 70.5155C60.4234 69.4287 61.2994 68.5527 62.3862 68.5527C63.473 68.5527 64.349 69.4287 64.349 70.5155Z" fill="#F5F7F6"/>
<path d="M82.0871 57.3924C82.0871 58.4792 81.2111 59.3551 80.1243 59.3551C79.0375 59.3551 78.1615 58.4711 78.1615 57.3924C78.1615 56.3055 79.0375 55.4296 80.1243 55.4296C81.2111 55.4296 82.0871 56.3136 82.0871 57.3924Z" fill="#F5F7F6"/>
<path d="M100.15 57.3924C100.15 58.4792 99.2737 59.3551 98.1868 59.3551C97.1 59.3551 96.2241 58.4711 96.2241 57.3924C96.2241 56.3055 97.1081 55.4296 98.1868 55.4296C99.2656 55.4296 100.15 56.3136 100.15 57.3924Z" fill="#F5F7F6"/>
<path d="M117.288 31.3812C117.288 32.4681 116.412 33.344 115.325 33.344C114.238 33.344 113.362 32.46 113.362 31.3812C113.362 30.2944 114.238 29.4185 115.325 29.4185C116.404 29.4185 117.288 30.2944 117.288 31.3812Z" fill="#F5F7F6"/>
<path d="M135.342 37.9591C135.342 39.046 134.466 39.9219 133.379 39.9219C132.292 39.9219 131.416 39.046 131.416 37.9591C131.416 36.8723 132.292 35.9963 133.379 35.9963C134.466 35.9963 135.342 36.8723 135.342 37.9591Z" fill="#F5F7F6"/>
<path d="M152.788 24.1872C152.788 25.274 151.904 26.1499 150.825 26.1499C149.739 26.1499 148.863 25.2659 148.863 24.1872C148.863 23.1003 149.739 22.2244 150.825 22.2244C151.912 22.2244 152.788 23.1003 152.788 24.1872Z" fill="#F5F7F6"/>
<path d="M170.388 37.0425C170.388 38.1293 169.512 39.0053 168.426 39.0053C167.339 39.0053 166.463 38.1293 166.463 37.0425C166.463 35.9557 167.339 35.0797 168.426 35.0797C169.504 35.0797 170.388 35.9557 170.388 37.0425Z" fill="#F5F7F6"/>
<path d="M188.613 37.1155C188.613 38.2023 187.729 39.0783 186.65 39.0783C185.564 39.0783 184.688 38.1942 184.688 37.1155C184.688 36.0287 185.564 35.1527 186.65 35.1527C187.729 35.1527 188.613 36.0368 188.613 37.1155Z" fill="#F5F7F6"/>
<defs>
<linearGradient id="paint0_linear_0_1403" x1="107.128" y1="101.163" x2="107.128" y2="35.6623" gradientUnits="userSpaceOnUse">
<stop offset="0.0101" stop-color="white" stop-opacity="0"/>
<stop offset="1" stop-color="white"/>
</linearGradient>
<linearGradient id="paint1_linear_0_1403" x1="27.6091" y1="47.3757" x2="152.256" y2="47.3757" gradientUnits="userSpaceOnUse">
<stop stop-color="#00EAD1"/>
<stop offset="0.1291" stop-color="#00E0D1"/>
<stop offset="0.3516" stop-color="#00C4CF"/>
<stop offset="0.6406" stop-color="#0097CE"/>
<stop offset="0.9819" stop-color="#0058CB"/>
<stop offset="0.9999" stop-color="#0055CB"/>
</linearGradient>
</defs>
</svg>
