<svg width="141" height="64" viewBox="0 0 141 64" fill="none" xmlns="http://www.w3.org/2000/svg">
<path d="M6.88058 2.28406H6.48315V57.6559H6.88058V2.28406Z" fill="white"/>
<path d="M140.699 57.4612H6.56421V57.8586H140.699V57.4612Z" fill="white"/>
<path d="M140.699 46.382H6.56421V46.7794H140.699V46.382Z" fill="white"/>
<path d="M140.699 35.3108H6.56421V35.7082H140.699V35.3108Z" fill="white"/>
<path d="M140.699 24.2397H6.56421V24.6372H140.699V24.2397Z" fill="white"/>
<path d="M140.699 13.1605H6.56421V13.5579H140.699V13.1605Z" fill="white"/>
<path d="M140.699 2.08936H6.56458V2.48677H140.699V2.08936Z" fill="white"/>
<path d="M23.6373 2.28406H23.2399V57.6559H23.6373V2.28406Z" fill="white"/>
<path d="M40.394 2.28406H39.9966V57.6559H40.394V2.28406Z" fill="white"/>
<path d="M57.1507 2.28406H56.7533V57.6559H57.1507V2.28406Z" fill="white"/>
<path d="M73.9074 2.28406H73.51V57.6559H73.9074V2.28406Z" fill="white"/>
<path d="M90.6643 2.28406H90.2668V57.6559H90.6643V2.28406Z" fill="white"/>
<path d="M107.421 2.28406H107.024V57.6559H107.421V2.28406Z" fill="white"/>
<path d="M124.178 2.28406H123.78V57.6559H124.178V2.28406Z" fill="white"/>
<path d="M140.934 2.28406H140.537V57.6559H140.934V2.28406Z" fill="white"/>
<path d="M7.13202 35.0192L24.0023 23.0315L40.0858 34.8164H57.3535L74.2319 11.855L90.3073 23.0315L107.583 11.6522H140.732V57.6481H6.70215L7.13202 35.0192Z" fill="url(#paint0_linear_0_1498)"/>
<path d="M140.732 57.6477V22.9663H124.851L107.916 34.6133L90.7048 11.5789L74.0292 23.7774H57.3535L40.1507 46.8118L24.0023 34.6133L6.78326 46.536L6.70215 57.6477H140.732Z" fill="url(#paint1_linear_0_1498)"/>
<path d="M11.3403 60.5308H11.651V62.1905C11.651 62.4148 11.5834 62.5902 11.4482 62.7169C11.314 62.8435 11.1348 62.9068 10.9105 62.9068C10.6776 62.9068 10.4963 62.8473 10.3664 62.7281C10.2366 62.609 10.1716 62.4421 10.1716 62.2275H10.4807C10.4807 62.3616 10.5172 62.4663 10.5902 62.5414C10.6642 62.6165 10.771 62.6541 10.9105 62.6541C11.0382 62.6541 11.1412 62.6138 11.2196 62.5334C11.299 62.4529 11.3393 62.3402 11.3403 62.1953V60.5308ZM13.4363 62.2629H12.4543L12.2338 62.8746H11.915L12.8101 60.5308H13.0805L13.9772 62.8746H13.66L13.4363 62.2629ZM12.5477 62.0086H13.3445L12.9453 60.9123L12.5477 62.0086ZM16.094 62.8746H15.7833L14.6034 61.0685V62.8746H14.2927V60.5308H14.6034L15.7866 62.345V60.5308H16.094V62.8746Z" fill="#F5F7F6"/>
<path d="M28.7536 61.8395H27.77V62.8746H27.4609V60.5308H28.9129V60.7851H27.77V61.5868H28.7536V61.8395ZM30.608 61.7912H29.5923V62.6219H30.7722V62.8746H29.2832V60.5308H30.7561V60.7851H29.5923V61.5385H30.608V61.7912ZM31.157 62.8746V60.5308H31.9232C32.1776 60.5308 32.3686 60.5834 32.4963 60.6885C32.6251 60.7937 32.6895 60.9493 32.6895 61.1554C32.6895 61.2648 32.6584 61.362 32.5961 61.4468C32.5339 61.5305 32.4491 61.5954 32.3418 61.6415C32.4684 61.677 32.5682 61.7446 32.6412 61.8444C32.7152 61.9431 32.7523 62.0612 32.7523 62.1985C32.7523 62.4089 32.6841 62.5741 32.5478 62.6943C32.4115 62.8145 32.2189 62.8746 31.9699 62.8746H31.157ZM31.466 61.7784V62.6219H31.9763C32.1202 62.6219 32.2334 62.5849 32.316 62.5108C32.3997 62.4357 32.4416 62.3327 32.4416 62.2017C32.4416 61.9195 32.2881 61.7784 31.9812 61.7784H31.466ZM31.466 61.5305H31.9329C32.0681 61.5305 32.176 61.4967 32.2564 61.429C32.338 61.3614 32.3788 61.2697 32.3788 61.1538C32.3788 61.025 32.3412 60.9316 32.2661 60.8737C32.191 60.8146 32.0767 60.7851 31.9232 60.7851H31.466V61.5305Z" fill="#F5F7F6"/>
<path d="M45.7865 60.5308L46.5528 62.4432L47.319 60.5308H47.7199V62.8746H47.4108V61.9619L47.4398 60.9767L46.6703 62.8746H46.4336L45.6658 60.9815L45.6964 61.9619V62.8746H45.3873V60.5308H45.7865ZM49.5888 62.2629H48.6069L48.3863 62.8746H48.0676L48.9626 60.5308H49.2331L50.1297 62.8746H49.8126L49.5888 62.2629ZM48.7002 62.0086H49.4971L49.0978 60.9123L48.7002 62.0086ZM51.3049 61.9265H50.7543V62.8746H50.4436V60.5308H51.2195C51.4835 60.5308 51.6864 60.5909 51.828 60.7111C51.9708 60.8313 52.0421 61.0062 52.0421 61.2359C52.0421 61.3818 52.0024 61.509 51.923 61.6174C51.8447 61.7258 51.7352 61.8068 51.5946 61.8605L52.1452 62.8553V62.8746H51.8136L51.3049 61.9265ZM50.7543 61.6737H51.2292C51.3827 61.6737 51.5045 61.634 51.5946 61.5546C51.6858 61.4752 51.7315 61.3689 51.7315 61.2359C51.7315 61.091 51.688 60.9799 51.6011 60.9026C51.5152 60.8254 51.3907 60.7862 51.2276 60.7851H50.7543V61.6737Z" fill="#F5F7F6"/>
<path d="M63.7841 62.2629H62.8021L62.5816 62.8746H62.2628L63.1579 60.5308H63.4283L64.325 62.8746H64.0079L63.7841 62.2629ZM62.8955 62.0086H63.6923L63.2931 60.9123L62.8955 62.0086ZM64.9496 61.9571V62.8746H64.6405V60.5308H65.505C65.7614 60.5308 65.9621 60.5963 66.107 60.7272C66.253 60.8581 66.3259 61.0314 66.3259 61.2471C66.3259 61.4747 66.2546 61.6501 66.1118 61.7735C65.9702 61.8959 65.7668 61.9571 65.5017 61.9571H64.9496ZM64.9496 61.7043H65.505C65.6702 61.7043 65.7969 61.6657 65.8849 61.5884C65.9729 61.5101 66.0169 61.3974 66.0169 61.2504C66.0169 61.1108 65.9729 60.9992 65.8849 60.9155C65.7969 60.8318 65.6761 60.7884 65.5227 60.7851H64.9496V61.7043ZM67.58 61.9265H67.0294V62.8746H66.7187V60.5308H67.4947C67.7587 60.5308 67.9615 60.5909 68.1031 60.7111C68.2459 60.8313 68.3173 61.0062 68.3173 61.2359C68.3173 61.3818 68.2775 61.509 68.1981 61.6174C68.1198 61.7258 68.0103 61.8068 67.8697 61.8605L68.4203 62.8553V62.8746H68.0887L67.58 61.9265ZM67.0294 61.6737H67.5043C67.6578 61.6737 67.7796 61.634 67.8697 61.5546C67.961 61.4752 68.0066 61.3689 68.0066 61.2359C68.0066 61.091 67.9631 60.9799 67.8762 60.9026C67.7903 60.8254 67.6658 60.7862 67.5027 60.7851H67.0294V61.6737Z" fill="#F5F7F6"/>
<path d="M81.6399 60.5308L82.4062 62.4432L83.1724 60.5308H83.5733V62.8746H83.2642V61.9619L83.2932 60.9767L82.5237 62.8746H82.287L81.5192 60.9815L81.5498 61.9619V62.8746H81.2407V60.5308H81.6399ZM85.4422 62.2629H84.4603L84.2397 62.8746H83.921L84.816 60.5308H85.0865L85.9831 62.8746H85.666L85.4422 62.2629ZM84.5536 62.0086H85.3505L84.9512 60.9123L84.5536 62.0086ZM86.8621 61.7075L87.4738 60.5308H87.8247L87.0166 62.0005V62.8746H86.7075V62.0005L85.8994 60.5308H86.2536L86.8621 61.7075Z" fill="#F5F7F6"/>
<path d="M99.3252 60.5308H99.6359V62.1905C99.6359 62.4148 99.5683 62.5902 99.433 62.7169C99.2989 62.8435 99.1197 62.9068 98.8954 62.9068C98.6625 62.9068 98.4811 62.8473 98.3513 62.7281C98.2214 62.609 98.1565 62.4421 98.1565 62.2275H98.4656C98.4656 62.3616 98.5021 62.4663 98.575 62.5414C98.6491 62.6165 98.7559 62.6541 98.8954 62.6541C99.0231 62.6541 99.1261 62.6138 99.2045 62.5334C99.2839 62.4529 99.3241 62.3402 99.3252 62.1953V60.5308ZM101.812 60.5308V62.1245C101.811 62.3456 101.741 62.5264 101.603 62.667C101.466 62.8076 101.279 62.8864 101.043 62.9036L100.961 62.9068C100.704 62.9068 100.5 62.8376 100.347 62.6992C100.195 62.5607 100.118 62.3702 100.116 62.1277V60.5308H100.421V62.118C100.421 62.2876 100.468 62.4196 100.562 62.514C100.655 62.6074 100.788 62.6541 100.961 62.6541C101.136 62.6541 101.269 62.6074 101.362 62.514C101.455 62.4207 101.502 62.2892 101.502 62.1196V60.5308H101.812ZM104.101 62.8746H103.791L102.611 61.0685V62.8746H102.3V60.5308H102.611L103.794 62.345V60.5308H104.101V62.8746Z" fill="#F5F7F6"/>
<path d="M117.252 60.5308H117.563V62.1905C117.563 62.4148 117.495 62.5902 117.36 62.7169C117.226 62.8435 117.047 62.9068 116.822 62.9068C116.589 62.9068 116.408 62.8473 116.278 62.7281C116.148 62.609 116.083 62.4421 116.083 62.2275H116.392C116.392 62.3616 116.429 62.4663 116.502 62.5414C116.576 62.6165 116.683 62.6541 116.822 62.6541C116.95 62.6541 117.053 62.6138 117.131 62.5334C117.211 62.4529 117.251 62.3402 117.252 62.1953V60.5308ZM119.739 60.5308V62.1245C119.738 62.3456 119.668 62.5264 119.53 62.667C119.393 62.8076 119.206 62.8864 118.97 62.9036L118.888 62.9068C118.631 62.9068 118.427 62.8376 118.274 62.6992C118.122 62.5607 118.045 62.3702 118.042 62.1277V60.5308H118.348V62.118C118.348 62.2876 118.395 62.4196 118.488 62.514C118.582 62.6074 118.715 62.6541 118.888 62.6541C119.063 62.6541 119.196 62.6074 119.288 62.514C119.382 62.4207 119.429 62.2892 119.429 62.1196V60.5308H119.739ZM120.538 62.6219H121.648V62.8746H120.227V60.5308H120.538V62.6219Z" fill="#F5F7F6"/>
<path d="M134.667 62.2629H133.685L133.464 62.8746H133.146L134.041 60.5308H134.311L135.208 62.8746H134.891L134.667 62.2629ZM133.778 62.0086H134.575L134.176 60.9123L133.778 62.0086ZM137.144 60.5308V62.1245C137.143 62.3456 137.074 62.5264 136.935 62.667C136.798 62.8076 136.611 62.8864 136.375 62.9036L136.293 62.9068C136.036 62.9068 135.832 62.8376 135.679 62.6992C135.527 62.5607 135.45 62.3702 135.448 62.1277V60.5308H135.754V62.118C135.754 62.2876 135.8 62.4196 135.894 62.514C135.987 62.6074 136.12 62.6541 136.293 62.6541C136.468 62.6541 136.601 62.6074 136.694 62.514C136.787 62.4207 136.834 62.2892 136.834 62.1196V60.5308H137.144ZM139.363 62.5672C139.283 62.6809 139.172 62.7662 139.029 62.8231C138.888 62.8789 138.722 62.9068 138.534 62.9068C138.343 62.9068 138.173 62.8623 138.025 62.7732C137.877 62.6831 137.762 62.5554 137.68 62.3901C137.6 62.2248 137.559 62.0333 137.556 61.8154V61.611C137.556 61.2579 137.639 60.9842 137.803 60.79C137.968 60.5957 138.2 60.4986 138.498 60.4986C138.743 60.4986 138.94 60.5614 139.089 60.6869C139.238 60.8114 139.329 60.9885 139.363 61.2182H139.054C138.996 60.908 138.811 60.7529 138.5 60.7529C138.293 60.7529 138.135 60.8259 138.028 60.9719C137.922 61.1167 137.868 61.3271 137.867 61.6029V61.7945C137.867 62.0574 137.927 62.2667 138.047 62.4223C138.168 62.5768 138.33 62.6541 138.535 62.6541C138.651 62.6541 138.753 62.6412 138.839 62.6155C138.926 62.5897 138.998 62.5462 139.055 62.4851V61.9587H138.513V61.7075H139.363V62.5672Z" fill="#F5F7F6"/>
<path d="M2.61874 56.9951C2.61874 57.3439 2.55918 57.603 2.44006 57.7726C2.32093 57.9422 2.13473 58.0269 1.88146 58.0269C1.63141 58.0269 1.44628 57.9443 1.32608 57.779C1.20589 57.6127 1.14364 57.3648 1.13935 57.0353V56.6377C1.13935 56.2932 1.19891 56.0373 1.31804 55.8698C1.43716 55.7024 1.62389 55.6187 1.87824 55.6187C2.13044 55.6187 2.3161 55.6997 2.43523 55.8618C2.55435 56.0228 2.61552 56.2717 2.61874 56.6087V56.9951ZM2.32093 56.5878C2.32093 56.3356 2.28552 56.1521 2.21469 56.0373C2.14386 55.9213 2.03171 55.8634 1.87824 55.8634C1.72585 55.8634 1.61477 55.9208 1.54501 56.0356C1.47526 56.1505 1.43931 56.327 1.43716 56.5653V57.0418C1.43716 57.295 1.47365 57.4823 1.54662 57.6036C1.62067 57.7238 1.73229 57.7839 1.88146 57.7839C2.02849 57.7839 2.13742 57.727 2.20825 57.6132C2.28015 57.4995 2.31771 57.3203 2.32093 57.0756V56.5878Z" fill="#F5F7F6"/>
<path d="M2.12776 47.8334H1.82834V45.8485L1.22789 46.069V45.7986L2.08107 45.4783H2.12776V47.8334ZM4.47 46.8337C4.47 47.1825 4.41043 47.4417 4.29131 47.6112C4.17219 47.7808 3.98599 47.8656 3.73271 47.8656C3.48266 47.8656 3.29754 47.7829 3.17734 47.6177C3.05714 47.4513 2.9949 47.2034 2.9906 46.8739V46.4763C2.9906 46.1318 3.05016 45.8759 3.16929 45.7085C3.28841 45.541 3.47515 45.4573 3.72949 45.4573C3.98169 45.4573 4.16736 45.5384 4.28648 45.7004C4.4056 45.8614 4.46678 46.1104 4.47 46.4473V46.8337ZM4.17219 46.4264C4.17219 46.1742 4.13677 45.9907 4.06594 45.8759C3.99511 45.76 3.88296 45.702 3.72949 45.702C3.5771 45.702 3.46603 45.7594 3.39627 45.8743C3.32651 45.9891 3.29056 46.1656 3.28841 46.4039V46.8804C3.28841 47.1337 3.3249 47.3209 3.39788 47.4422C3.47193 47.5624 3.58354 47.6225 3.73271 47.6225C3.87974 47.6225 3.98867 47.5656 4.0595 47.4519C4.1314 47.3381 4.16897 47.1589 4.17219 46.9142V46.4264Z" fill="#F5F7F6"/>
<path d="M2.12776 36.3146H1.82834V34.3297L1.22789 34.5503V34.2798L2.08107 33.9595H2.12776V36.3146ZM3.97901 36.3146H3.67959V34.3297L3.07914 34.5503V34.2798L3.93233 33.9595H3.97901V36.3146Z" fill="#F5F7F6"/>
<path d="M2.12776 25.5566H1.82834V23.5718L1.22789 23.7923V23.5219L2.08107 23.2015H2.12776V25.5566ZM4.536 25.5566H3.00026V25.3425L3.81159 24.4411C3.93179 24.3048 4.01443 24.1942 4.0595 24.1094C4.10565 24.0236 4.12872 23.935 4.12872 23.8438C4.12872 23.7215 4.0917 23.6211 4.01765 23.5428C3.9436 23.4645 3.84486 23.4253 3.72145 23.4253C3.57335 23.4253 3.45798 23.4677 3.37534 23.5525C3.29378 23.6362 3.253 23.7531 3.253 23.9034H2.95519C2.95519 23.6877 3.02441 23.5133 3.16285 23.3802C3.30236 23.2471 3.48856 23.1806 3.72145 23.1806C3.9393 23.1806 4.11155 23.238 4.23819 23.3528C4.36482 23.4666 4.42814 23.6185 4.42814 23.8084C4.42814 24.0391 4.28111 24.3139 3.98706 24.6326L3.35924 25.3136H4.536V25.5566Z" fill="#F5F7F6"/>
<path d="M2.12776 15.0175H1.82834V13.0326L1.22789 13.2531V12.9827L2.08107 12.6623H2.12776V15.0175ZM3.43329 13.7007H3.65705C3.79764 13.6985 3.90818 13.6615 3.98867 13.5896C4.06916 13.5177 4.1094 13.4205 4.1094 13.2982C4.1094 13.0235 3.97257 12.8861 3.69891 12.8861C3.57013 12.8861 3.4671 12.9231 3.38983 12.9972C3.31363 13.0702 3.27553 13.1673 3.27553 13.2885H2.97772C2.97772 13.1029 3.04534 12.9489 3.18056 12.8265C3.31685 12.7031 3.48964 12.6414 3.69891 12.6414C3.91999 12.6414 4.09331 12.6999 4.21887 12.8169C4.34443 12.9339 4.40721 13.0964 4.40721 13.3046C4.40721 13.4066 4.37395 13.5053 4.30741 13.6008C4.24194 13.6964 4.15233 13.7677 4.03857 13.8149C4.16736 13.8557 4.26663 13.9233 4.33638 14.0178C4.40721 14.1122 4.44263 14.2276 4.44263 14.3639C4.44263 14.5742 4.37395 14.7411 4.23658 14.8645C4.09921 14.9879 3.92052 15.0497 3.70052 15.0497C3.48051 15.0497 3.30129 14.9901 3.16285 14.871C3.02548 14.7518 2.9568 14.5946 2.9568 14.3993H3.25622C3.25622 14.5227 3.29646 14.6214 3.37695 14.6955C3.45744 14.7695 3.5653 14.8066 3.70052 14.8066C3.84433 14.8066 3.95433 14.769 4.03052 14.6939C4.10672 14.6188 4.14482 14.5109 4.14482 14.3703C4.14482 14.234 4.10296 14.1294 4.01926 14.0564C3.93555 13.9834 3.81481 13.9459 3.65705 13.9437H3.43329V13.7007Z" fill="#F5F7F6"/>
<path d="M2.12776 3.76392H1.82834V1.77905L1.22789 1.99959V1.72915L2.08107 1.4088H2.12776V3.76392ZM4.2575 2.97673H4.58268V3.21981H4.2575V3.76392H3.95808V3.21981H2.8908V3.04434L3.94038 1.42007H4.2575V2.97673ZM3.22885 2.97673H3.95808V1.82734L3.92267 1.89174L3.22885 2.97673Z" fill="#F5F7F6"/>
<defs>
<linearGradient id="paint0_linear_0_1498" x1="73.7178" y1="55.6026" x2="73.7178" y2="-6.43871" gradientUnits="userSpaceOnUse">
<stop stop-color="#27B7FF"/>
<stop offset="0.895833" stop-color="#F408AB"/>
</linearGradient>
<linearGradient id="paint1_linear_0_1498" x1="73.7178" y1="80.2064" x2="73.7178" y2="15.0946" gradientUnits="userSpaceOnUse">
<stop offset="0.000116" stop-color="#0055CB"/>
<stop offset="0.3594" stop-color="#0077CE"/>
<stop offset="0.6484" stop-color="#0066FF"/>
<stop offset="0.8709" stop-color="#0066FF"/>
<stop offset="1" stop-color="#0066FF"/>
</linearGradient>
</defs>
</svg>
