<svg width="148" height="69" viewBox="0 0 148 69" fill="none" xmlns="http://www.w3.org/2000/svg">
<path d="M147.107 25.9129V68.7212H0.554199V15.3527C7.21309 15.3527 7.21308 25.9047 13.872 25.9047C20.539 25.9047 20.539 4.04639 27.1979 4.04639C33.8568 4.04639 33.8567 40.6095 40.5238 40.6095C47.1826 40.6095 47.1826 15.3527 53.8415 15.3527C60.5004 15.3527 60.5005 32.3122 67.1593 32.3122C73.8263 32.3122 73.8263 25.1504 80.4852 25.1504C87.1441 25.1504 87.1441 35.3294 93.8111 35.3294C100.47 35.3294 100.47 24.9639 107.137 24.9639C113.796 24.9639 113.796 48.8986 120.455 48.8986C127.122 48.8986 127.122 5.36032 133.781 5.36032C140.44 5.36843 140.44 25.9129 147.107 25.9129Z" fill="url(#paint0_linear_0_1482)"/>
<path d="M120.455 49.2799C116.837 49.2799 115.183 43.3347 113.431 37.0408C111.833 31.2903 110.179 25.3533 107.137 25.3533C104.006 25.3533 102.449 27.7865 100.786 30.3657C99.0912 33.0017 97.3475 35.7188 93.8112 35.7188C90.2749 35.7188 88.523 33.0422 86.836 30.4549C85.1814 27.9244 83.616 25.5398 80.4934 25.5398C77.3302 25.5398 75.7649 27.2187 74.1103 29.0031C72.4152 30.8199 70.6632 32.7016 67.1675 32.7016C63.5825 32.7016 61.8388 28.265 60.1599 23.9826C58.5702 19.9272 56.9237 15.7421 53.8497 15.7421C50.8082 15.7421 49.1536 22.0198 47.5558 28.0866C45.8039 34.7212 44.1493 40.9907 40.5319 40.9907C36.8821 40.9907 35.2357 31.9554 33.5 22.3929C31.967 13.974 30.2232 4.42764 27.2142 4.42764C24.1645 4.42764 22.5099 9.8456 20.9121 15.0932C19.1602 20.8518 17.4975 26.2941 13.8883 26.2941C10.352 26.2941 8.60006 23.5203 6.91303 20.8437C5.25845 18.224 3.69307 15.7421 0.570449 15.7421C0.35957 15.7421 0.197388 15.5718 0.197388 15.369C0.197388 15.1581 0.367681 14.9959 0.570449 14.9959C4.10672 14.9959 5.85866 17.7698 7.54569 20.4463C9.20027 23.0661 10.7656 25.5479 13.8883 25.5479C16.9379 25.5479 18.5924 20.1219 20.1903 14.8824C21.9422 9.12375 23.6049 3.68958 27.2142 3.68958C30.8559 3.68958 32.5023 12.7168 34.2461 22.2793C35.7791 30.7063 37.5229 40.2527 40.5401 40.2527C43.5816 40.2527 45.2362 33.975 46.834 27.9082C48.5859 21.2736 50.2404 15.004 53.8578 15.004C57.4428 15.004 59.1866 19.4406 60.8655 23.723C62.4552 27.7784 64.1016 31.9635 67.1756 31.9635C70.3469 31.9635 71.9041 30.2846 73.5668 28.5002C75.262 26.6834 77.0058 24.8018 80.5015 24.8018C84.0378 24.8018 85.7816 27.4783 87.4767 30.0575C89.1313 32.588 90.6967 34.9726 93.8274 34.9726C96.9501 34.9726 98.5154 32.5394 100.17 29.9683C101.865 27.3323 103.617 24.6152 107.153 24.6152C110.771 24.6152 112.425 30.5604 114.177 36.8543C115.775 42.6048 117.43 48.5499 120.471 48.5499C123.48 48.5499 125.224 37.1544 126.765 27.1052C128.809 13.7631 130.399 5.01973 133.805 5.01973C137.406 5.01973 139.142 10.3728 140.821 15.5474C142.419 20.4706 144.065 25.556 147.123 25.556C147.334 25.556 147.496 25.7264 147.496 25.9291C147.496 26.14 147.326 26.3022 147.123 26.3022C143.514 26.3022 141.778 20.9492 140.099 15.7664C138.501 10.8432 136.855 5.75781 133.797 5.75781C130.788 5.75781 129.044 17.1533 127.503 27.2025C125.451 40.5365 123.853 49.2799 120.455 49.2799Z" fill="white"/>
<path d="M30.1097 3.95725C30.1097 5.61994 28.7633 6.97443 27.0925 6.97443C25.4298 6.97443 24.0753 5.62806 24.0753 3.95725C24.0753 2.29455 25.4217 0.940063 27.0925 0.940063C28.7552 0.940063 30.1097 2.29455 30.1097 3.95725Z" fill="#018DCE"/>
<path d="M16.1592 25.5399C16.1592 27.2026 14.8128 28.5571 13.142 28.5571C11.4793 28.5571 10.1249 27.2107 10.1249 25.5399C10.1249 23.8772 11.4712 22.5227 13.142 22.5227C14.8128 22.5227 16.1592 23.8691 16.1592 25.5399Z" fill="#018DCE"/>
<path d="M43.2814 40.4149C43.2814 42.0776 41.935 43.4321 40.2642 43.4321C38.6015 43.4321 37.2471 42.0857 37.2471 40.4149C37.2471 38.7522 38.5934 37.3977 40.2642 37.3977C41.935 37.4058 43.2814 38.7522 43.2814 40.4149Z" fill="#018DCE"/>
<path d="M56.6317 15.5718C56.6317 17.2344 55.2853 18.5889 53.6145 18.5889C51.9518 18.5889 50.5973 17.2426 50.5973 15.5718C50.5973 13.9091 51.9437 12.5546 53.6145 12.5546C55.2772 12.5627 56.6317 13.9091 56.6317 15.5718Z" fill="#018DCE"/>
<path d="M70.4929 32.0204C70.4929 33.6831 69.1465 35.0376 67.4757 35.0376C65.813 35.0376 64.4585 33.6912 64.4585 32.0204C64.4585 30.3577 65.8049 29.0032 67.4757 29.0032C69.1384 29.0032 70.4929 30.3496 70.4929 32.0204Z" fill="#018DCE"/>
<path d="M83.5106 25.6615C83.5106 27.3242 82.1642 28.6787 80.4934 28.6787C78.8307 28.6787 77.4762 27.3323 77.4762 25.6615C77.4762 23.9988 78.8226 22.6443 80.4934 22.6443C82.1642 22.6443 83.5106 23.9988 83.5106 25.6615Z" fill="#018DCE"/>
<path d="M96.3336 35.0051C96.3336 36.6678 94.9872 38.0223 93.3164 38.0223C91.6537 38.0223 90.2992 36.6759 90.2992 35.0051C90.2992 33.3424 91.6456 31.9879 93.3164 31.9879C94.9872 31.9879 96.3336 33.3424 96.3336 35.0051Z" fill="#018DCE"/>
<path d="M110.398 24.8586C110.398 26.5213 109.051 27.8758 107.38 27.8758C105.718 27.8758 104.363 26.5294 104.363 24.8586C104.363 23.1959 105.71 21.8414 107.38 21.8414C109.051 21.8414 110.398 23.1959 110.398 24.8586Z" fill="#018DCE"/>
<path d="M123.131 48.5824C123.131 50.2451 121.785 51.5996 120.114 51.5996C118.452 51.5996 117.097 50.2532 117.097 48.5824C117.097 46.9197 118.443 45.5652 120.114 45.5652C121.777 45.5652 123.131 46.9116 123.131 48.5824Z" fill="#018DCE"/>
<path d="M137.106 5.65232C137.106 7.31501 135.76 8.6695 134.089 8.6695C132.426 8.6695 131.072 7.32312 131.072 5.65232C131.072 3.98962 132.418 2.63513 134.089 2.63513C135.752 2.63513 137.106 3.98151 137.106 5.65232Z" fill="#018DCE"/>
<defs>
<linearGradient id="paint0_linear_0_1482" x1="73.8303" y1="70.1046" x2="73.8303" y2="3.16508" gradientUnits="userSpaceOnUse">
<stop offset="0.0101" stop-opacity="0"/>
<stop offset="1" stop-color="#0198CE"/>
</linearGradient>
</defs>
</svg>
