<svg width="156" height="63" viewBox="0 0 156 63" fill="none" xmlns="http://www.w3.org/2000/svg">
<path d="M8.59696 0.945557H5.66089V57.096H8.59696V0.945557Z" fill="#406EB2"/>
<path d="M15.1017 0.945557H12.1656V57.096H15.1017V0.945557Z" fill="#406EB2"/>
<path d="M28.1032 0.945557H25.1671V57.096H28.1032V0.945557Z" fill="#406EB2"/>
<path d="M34.5999 0.945557H31.6638V57.096H34.5999V0.945557Z" fill="#406EB2"/>
<path d="M47.6014 0.945557H44.6653V57.096H47.6014V0.945557Z" fill="#406EB2"/>
<path d="M54.1061 0.945557H51.17V57.096H54.1061V0.945557Z" fill="#406EB2"/>
<path d="M67.1076 0.945557H64.1715V57.096H67.1076V0.945557Z" fill="#406EB2"/>
<path d="M73.6043 0.945557H70.6682V57.096H73.6043V0.945557Z" fill="#406EB2"/>
<path d="M86.6058 0.945557H83.6697V57.096H86.6058V0.945557Z" fill="#406EB2"/>
<path d="M93.1025 0.945557H90.1664V57.096H93.1025V0.945557Z" fill="#406EB2"/>
<path d="M106.104 0.945557H103.168V57.096H106.104V0.945557Z" fill="#406EB2"/>
<path d="M112.609 0.945557H109.673V57.096H112.609V0.945557Z" fill="#406EB2"/>
<path d="M125.61 0.945557H122.674V57.096H125.61V0.945557Z" fill="#406EB2"/>
<path d="M132.107 0.945557H129.171V57.096H132.107V0.945557Z" fill="#406EB2"/>
<path d="M145.108 0.945557H142.172V57.096H145.108V0.945557Z" fill="#406EB2"/>
<path d="M151.613 0.945557H148.677V57.096H151.613V0.945557Z" fill="#406EB2"/>
<path d="M8.59696 22.1063H5.66089V57.104H8.59696V22.1063Z" fill="url(#paint0_linear_0_1349)"/>
<path d="M15.1017 36.2758H12.1656V57.0959H15.1017V36.2758Z" fill="url(#paint1_linear_0_1349)"/>
<path d="M28.1032 32.4313H25.1671V57.0959H28.1032V32.4313Z" fill="url(#paint2_linear_0_1349)"/>
<path d="M34.5999 25.7075H31.6638V57.096H34.5999V25.7075Z" fill="url(#paint3_linear_0_1349)"/>
<path d="M47.6014 29.0734H44.6653V57.104H47.6014V29.0734Z" fill="url(#paint4_linear_0_1349)"/>
<path d="M54.1061 36.9165H51.17V57.096H54.1061V36.9165Z" fill="url(#paint5_linear_0_1349)"/>
<path d="M67.1076 34.8402H64.1715V57.1041H67.1076V34.8402Z" fill="url(#paint6_linear_0_1349)"/>
<path d="M73.6043 27.4675H70.6682V57.096H73.6043V27.4675Z" fill="url(#paint7_linear_0_1349)"/>
<path d="M86.6058 19.7056H83.6697V57.104H86.6058V19.7056Z" fill="url(#paint8_linear_0_1349)"/>
<path d="M93.1025 33.7128H90.1664V57.0959H93.1025V33.7128Z" fill="url(#paint9_linear_0_1349)"/>
<path d="M106.104 22.5848H103.168V57.0959H106.104V22.5848Z" fill="url(#paint10_linear_0_1349)"/>
<path d="M112.609 40.9232H109.673V57.096H112.609V40.9232Z" fill="url(#paint11_linear_0_1349)"/>
<path d="M125.61 32.196H122.674V57.104H125.61V32.196Z" fill="url(#paint12_linear_0_1349)"/>
<path d="M132.107 27.4675H129.171V57.096H132.107V27.4675Z" fill="url(#paint13_linear_0_1349)"/>
<path d="M145.108 21.1411H142.172V57.0959H145.108V21.1411Z" fill="url(#paint14_linear_0_1349)"/>
<path d="M151.613 30.2738H148.677V57.104H151.613V30.2738Z" fill="url(#paint15_linear_0_1349)"/>
<path d="M155.052 57.4612H0.14563V0.962036H0.737696V56.8692H155.052V57.4612Z" fill="white"/>
<path d="M5.18676 61.5701V59.0692H5.89271C6.11027 59.0692 6.30265 59.1173 6.46983 59.2135C6.63701 59.3097 6.76583 59.4465 6.85629 59.624C6.9479 59.8015 6.99428 60.0053 6.99542 60.2355V60.3952C6.99542 60.6311 6.94962 60.8378 6.85801 61.0153C6.76755 61.1928 6.63758 61.329 6.46811 61.4241C6.29978 61.5191 6.1034 61.5678 5.87897 61.5701H5.18676ZM5.51655 59.3406V61.3004H5.86351C6.11772 61.3004 6.31524 61.2214 6.45609 61.0634C6.59808 60.9053 6.66907 60.6803 6.66907 60.3883V60.2423C6.66907 59.9584 6.60209 59.7379 6.46811 59.5811C6.33528 59.423 6.14634 59.3429 5.90129 59.3406H5.51655ZM8.83843 60.9174H7.79068L7.55537 61.5701H7.21528L8.17028 59.0692H8.45884L9.41556 61.5701H9.07718L8.83843 60.9174ZM7.8903 60.646H8.74053L8.31456 59.4763L7.8903 60.646ZM11.2568 59.3406H10.453V61.5701H10.1249V59.3406H9.3228V59.0692H11.2568V59.3406ZM12.8714 60.9174H11.8237L11.5884 61.5701H11.2483L12.2033 59.0692H12.4918L13.4485 61.5701H13.1102L12.8714 60.9174ZM11.9233 60.646H12.7735L12.3475 59.4763L11.9233 60.646ZM16.1435 60.5034C16.1435 60.8756 16.0799 61.1521 15.9528 61.333C15.8257 61.514 15.6271 61.6044 15.3568 61.6044C15.09 61.6044 14.8925 61.5162 14.7642 61.3399C14.636 61.1624 14.5696 60.8979 14.565 60.5464V60.1221C14.565 59.7545 14.6285 59.4814 14.7557 59.3028C14.8828 59.1242 15.082 59.0349 15.3534 59.0349C15.6225 59.0349 15.8206 59.1213 15.9477 59.2942C16.0748 59.466 16.1401 59.7316 16.1435 60.0912V60.5034ZM15.8257 60.0689C15.8257 59.7998 15.7879 59.604 15.7124 59.4814C15.6368 59.3578 15.5171 59.2959 15.3534 59.2959C15.1908 59.2959 15.0723 59.3572 14.9978 59.4797C14.9234 59.6022 14.885 59.7906 14.8828 60.0448V60.5532C14.8828 60.8235 14.9217 61.0233 14.9996 61.1527C15.0786 61.2809 15.1977 61.3451 15.3568 61.3451C15.5137 61.3451 15.6299 61.2844 15.7055 61.163C15.7822 61.0416 15.8223 60.8504 15.8257 60.5893V60.0689ZM17.5949 61.5701H17.2754V59.4522L16.6347 59.6876V59.399L17.5451 59.0572H17.5949V61.5701Z" fill="#F5F7F6"/>
<path d="M23.9285 61.5701V59.0692H24.6344C24.852 59.0692 25.0443 59.1173 25.2115 59.2135C25.3787 59.3097 25.5075 59.4465 25.598 59.624C25.6896 59.8015 25.736 60.0053 25.7371 60.2355V60.3952C25.7371 60.6311 25.6913 60.8378 25.5997 61.0153C25.5092 61.1928 25.3793 61.329 25.2098 61.4241C25.0415 61.5191 24.8451 61.5678 24.6207 61.5701H23.9285ZM24.2582 59.3406V61.3004H24.6052C24.8594 61.3004 25.0569 61.2214 25.1978 61.0634C25.3398 60.9053 25.4108 60.6803 25.4108 60.3883V60.2423C25.4108 59.9584 25.3438 59.7379 25.2098 59.5811C25.077 59.423 24.888 59.3429 24.643 59.3406H24.2582ZM27.5801 60.9174H26.5324L26.2971 61.5701H25.957L26.912 59.0692H27.2005L28.1573 61.5701H27.8189L27.5801 60.9174ZM26.632 60.646H27.4822L27.0563 59.4763L26.632 60.646ZM29.9985 59.3406H29.1947V61.5701H28.8666V59.3406H28.0645V59.0692H29.9985V59.3406ZM31.6131 60.9174H30.5654L30.3301 61.5701H29.99L30.945 59.0692H31.2335L32.1902 61.5701H31.8519L31.6131 60.9174ZM30.665 60.646H31.5152L31.0892 59.4763L30.665 60.646ZM34.8852 60.5034C34.8852 60.8756 34.8216 61.1521 34.6945 61.333C34.5674 61.514 34.3688 61.6044 34.0985 61.6044C33.8317 61.6044 33.6342 61.5162 33.5059 61.3399C33.3777 61.1624 33.3113 60.8979 33.3067 60.5464V60.1221C33.3067 59.7545 33.3702 59.4814 33.4974 59.3028C33.6245 59.1242 33.8237 59.0349 34.0951 59.0349C34.3642 59.0349 34.5623 59.1213 34.6894 59.2942C34.8165 59.466 34.8818 59.7316 34.8852 60.0912V60.5034ZM34.5674 60.0689C34.5674 59.7998 34.5296 59.604 34.4541 59.4814C34.3785 59.3578 34.2588 59.2959 34.0951 59.2959C33.9325 59.2959 33.814 59.3572 33.7395 59.4797C33.6651 59.6022 33.6267 59.7906 33.6245 60.0448V60.5532C33.6245 60.8235 33.6634 61.0233 33.7413 61.1527C33.8203 61.2809 33.9394 61.3451 34.0985 61.3451C34.2554 61.3451 34.3716 61.2844 34.4472 61.163C34.5239 61.0416 34.564 60.8504 34.5674 60.5893V60.0689ZM36.9309 61.5701H35.2923V61.3416L36.158 60.3798C36.2862 60.2343 36.3744 60.1164 36.4225 60.0259C36.4717 59.9343 36.4963 59.8398 36.4963 59.7425C36.4963 59.612 36.4568 59.5049 36.3778 59.4213C36.2988 59.3377 36.1934 59.2959 36.0618 59.2959C35.9037 59.2959 35.7806 59.3412 35.6925 59.4316C35.6054 59.5209 35.5619 59.6458 35.5619 59.8061H35.2442C35.2442 59.5759 35.318 59.3898 35.4657 59.2478C35.6146 59.1058 35.8133 59.0349 36.0618 59.0349C36.2942 59.0349 36.478 59.0961 36.6131 59.2186C36.7482 59.34 36.8158 59.502 36.8158 59.7047C36.8158 59.9509 36.6589 60.2441 36.3452 60.5842L35.6753 61.3107H36.9309V61.5701Z" fill="#F5F7F6"/>
<path d="M42.7725 61.5701V59.0692H43.4784C43.696 59.0692 43.8883 59.1173 44.0555 59.2135C44.2227 59.3097 44.3515 59.4465 44.442 59.624C44.5336 59.8015 44.58 60.0053 44.5811 60.2355V60.3952C44.5811 60.6311 44.5353 60.8378 44.4437 61.0153C44.3532 61.1928 44.2233 61.329 44.0538 61.4241C43.8855 61.5191 43.6891 61.5678 43.4647 61.5701H42.7725ZM43.1022 59.3406V61.3004H43.4492C43.7034 61.3004 43.9009 61.2214 44.0418 61.0634C44.1838 60.9053 44.2548 60.6803 44.2548 60.3883V60.2423C44.2548 59.9584 44.1878 59.7379 44.0538 59.5811C43.921 59.423 43.732 59.3429 43.487 59.3406H43.1022ZM46.4241 60.9174H45.3764L45.1411 61.5701H44.801L45.756 59.0692H46.0445L47.0012 61.5701H46.6629L46.4241 60.9174ZM45.476 60.646H46.3262L45.9003 59.4763L45.476 60.646ZM48.8425 59.3406H48.0387V61.5701H47.7106V59.3406H46.9085V59.0692H48.8425V59.3406ZM50.4571 60.9174H49.4094L49.174 61.5701H48.834L49.789 59.0692H50.0775L51.0342 61.5701H50.6959L50.4571 60.9174ZM49.509 60.646H50.3592L49.9332 59.4763L49.509 60.646ZM53.7292 60.5034C53.7292 60.8756 53.6656 61.1521 53.5385 61.333C53.4114 61.514 53.2128 61.6044 52.9425 61.6044C52.6757 61.6044 52.4782 61.5162 52.3499 61.3399C52.2217 61.1624 52.1553 60.8979 52.1507 60.5464V60.1221C52.1507 59.7545 52.2142 59.4814 52.3413 59.3028C52.4684 59.1242 52.6677 59.0349 52.9391 59.0349C53.2082 59.0349 53.4063 59.1213 53.5334 59.2942C53.6605 59.466 53.7258 59.7316 53.7292 60.0912V60.5034ZM53.4114 60.0689C53.4114 59.7998 53.3736 59.604 53.2981 59.4814C53.2225 59.3578 53.1028 59.2959 52.9391 59.2959C52.7765 59.2959 52.658 59.3572 52.5835 59.4797C52.5091 59.6022 52.4707 59.7906 52.4684 60.0448V60.5532C52.4684 60.8235 52.5074 61.0233 52.5852 61.1527C52.6643 61.2809 52.7833 61.3451 52.9425 61.3451C53.0994 61.3451 53.2156 61.2844 53.2912 61.163C53.3679 61.0416 53.408 60.8504 53.4114 60.5893V60.0689ZM54.5983 60.1651H54.8371C54.9871 60.1628 55.105 60.1233 55.1909 60.0465C55.2768 59.9698 55.3197 59.8662 55.3197 59.7356C55.3197 59.4425 55.1737 59.2959 54.8817 59.2959C54.7443 59.2959 54.6344 59.3354 54.5519 59.4144C54.4706 59.4923 54.43 59.5959 54.43 59.7253H54.1122C54.1122 59.5272 54.1844 59.3629 54.3286 59.2324C54.4741 59.1007 54.6584 59.0349 54.8817 59.0349C55.1176 59.0349 55.3025 59.0973 55.4365 59.2221C55.5705 59.3469 55.6375 59.5204 55.6375 59.7425C55.6375 59.8513 55.602 59.9566 55.531 60.0586C55.4611 60.1605 55.3655 60.2366 55.2441 60.287C55.3815 60.3305 55.4875 60.4027 55.5619 60.5034C55.6375 60.6042 55.6753 60.7273 55.6753 60.8727C55.6753 61.0971 55.602 61.2752 55.4554 61.4069C55.3088 61.5386 55.1182 61.6044 54.8834 61.6044C54.6487 61.6044 54.4575 61.5409 54.3097 61.4138C54.1632 61.2867 54.0899 61.1189 54.0899 60.9105H54.4094C54.4094 61.0422 54.4523 61.1475 54.5382 61.2265C54.6241 61.3056 54.7391 61.3451 54.8834 61.3451C55.0369 61.3451 55.1542 61.305 55.2355 61.2248C55.3168 61.1447 55.3575 61.0296 55.3575 60.8796C55.3575 60.7342 55.3128 60.6225 55.2235 60.5446C55.1342 60.4668 55.0054 60.4267 54.8371 60.4244H54.5983V60.1651Z" fill="#F5F7F6"/>
<path d="M62.5439 61.5701V59.0692H63.2499C63.4675 59.0692 63.6598 59.1173 63.827 59.2135C63.9942 59.3097 64.123 59.4465 64.2135 59.624C64.3051 59.8015 64.3515 60.0053 64.3526 60.2355V60.3952C64.3526 60.6311 64.3068 60.8378 64.2152 61.0153C64.1247 61.1928 63.9948 61.329 63.8253 61.4241C63.657 61.5191 63.4606 61.5678 63.2361 61.5701H62.5439ZM62.8737 59.3406V61.3004H63.2207C63.4749 61.3004 63.6724 61.2214 63.8133 61.0634C63.9553 60.9053 64.0263 60.6803 64.0263 60.3883V60.2423C64.0263 59.9584 63.9593 59.7379 63.8253 59.5811C63.6925 59.423 63.5035 59.3429 63.2585 59.3406H62.8737ZM66.1956 60.9174H65.1479L64.9125 61.5701H64.5725L65.5275 59.0692H65.816L66.7727 61.5701H66.4344L66.1956 60.9174ZM65.2475 60.646H66.0977L65.6717 59.4763L65.2475 60.646ZM68.614 59.3406H67.8102V61.5701H67.4821V59.3406H66.68V59.0692H68.614V59.3406ZM70.2286 60.9174H69.1808L68.9455 61.5701H68.6054L69.5604 59.0692H69.849L70.8057 61.5701H70.4673L70.2286 60.9174ZM69.2805 60.646H70.1307L69.7047 59.4763L69.2805 60.646ZM73.5007 60.5034C73.5007 60.8756 73.4371 61.1521 73.31 61.333C73.1829 61.514 72.9842 61.6044 72.714 61.6044C72.4472 61.6044 72.2497 61.5162 72.1214 61.3399C71.9932 61.1624 71.9268 60.8979 71.9222 60.5464V60.1221C71.9222 59.7545 71.9857 59.4814 72.1128 59.3028C72.2399 59.1242 72.4392 59.0349 72.7106 59.0349C72.9797 59.0349 73.1778 59.1213 73.3049 59.2942C73.432 59.466 73.4972 59.7316 73.5007 60.0912V60.5034ZM73.1829 60.0689C73.1829 59.7998 73.1451 59.604 73.0695 59.4814C72.994 59.3578 72.8743 59.2959 72.7106 59.2959C72.548 59.2959 72.4294 59.3572 72.355 59.4797C72.2806 59.6022 72.2422 59.7906 72.2399 60.0448V60.5532C72.2399 60.8235 72.2789 61.0233 72.3567 61.1527C72.4357 61.2809 72.5548 61.3451 72.714 61.3451C72.8709 61.3451 72.9871 61.2844 73.0627 61.163C73.1394 61.0416 73.1795 60.8504 73.1829 60.5893V60.0689ZM75.2492 60.7301H75.5962V60.9895H75.2492V61.5701H74.9297V60.9895H73.7909V60.8023L74.9108 59.0692H75.2492V60.7301ZM74.1517 60.7301H74.9297V59.5038L74.8919 59.5725L74.1517 60.7301Z" fill="#F5F7F6"/>
<path d="M82.0753 61.5701V59.0692H82.7813C82.9988 59.0692 83.1912 59.1173 83.3584 59.2135C83.5256 59.3097 83.6544 59.4465 83.7448 59.624C83.8365 59.8015 83.8828 60.0053 83.884 60.2355V60.3952C83.884 60.6311 83.8382 60.8378 83.7466 61.0153C83.6561 61.1928 83.5261 61.329 83.3567 61.4241C83.1883 61.5191 82.992 61.5678 82.7675 61.5701H82.0753ZM82.4051 59.3406V61.3004H82.7521C83.0063 61.3004 83.2038 61.2214 83.3446 61.0634C83.4866 60.9053 83.5576 60.6803 83.5576 60.3883V60.2423C83.5576 59.9584 83.4906 59.7379 83.3567 59.5811C83.2238 59.423 83.0349 59.3429 82.7898 59.3406H82.4051ZM85.727 60.9174H84.6792L84.4439 61.5701H84.1038L85.0588 59.0692H85.3474L86.3041 61.5701H85.9657L85.727 60.9174ZM84.7789 60.646H85.6291L85.2031 59.4763L84.7789 60.646ZM88.1454 59.3406H87.3416V61.5701H87.0135V59.3406H86.2114V59.0692H88.1454V59.3406ZM89.76 60.9174H88.7122L88.4769 61.5701H88.1368L89.0918 59.0692H89.3804L90.3371 61.5701H89.9987L89.76 60.9174ZM88.8118 60.646H89.6621L89.2361 59.4763L88.8118 60.646ZM93.032 60.5034C93.032 60.8756 92.9685 61.1521 92.8414 61.333C92.7143 61.514 92.5156 61.6044 92.2454 61.6044C91.9786 61.6044 91.781 61.5162 91.6528 61.3399C91.5245 61.1624 91.4581 60.8979 91.4535 60.5464V60.1221C91.4535 59.7545 91.5171 59.4814 91.6442 59.3028C91.7713 59.1242 91.9705 59.0349 92.2419 59.0349C92.511 59.0349 92.7091 59.1213 92.8362 59.2942C92.9633 59.466 93.0286 59.7316 93.032 60.0912V60.5034ZM92.7143 60.0689C92.7143 59.7998 92.6765 59.604 92.6009 59.4814C92.5253 59.3578 92.4057 59.2959 92.2419 59.2959C92.0793 59.2959 91.9608 59.3572 91.8864 59.4797C91.812 59.6022 91.7736 59.7906 91.7713 60.0448V60.5532C91.7713 60.8235 91.8102 61.0233 91.8881 61.1527C91.9671 61.2809 92.0862 61.3451 92.2454 61.3451C92.4022 61.3451 92.5185 61.2844 92.594 61.163C92.6708 61.0416 92.7108 60.8504 92.7143 60.5893V60.0689ZM93.5851 60.3162L93.7122 59.0692H94.9936V59.3629H93.9819L93.9063 60.0448C94.0288 59.9727 94.168 59.9366 94.3237 59.9366C94.5516 59.9366 94.7325 60.0122 94.8665 60.1633C95.0004 60.3133 95.0674 60.5166 95.0674 60.7731C95.0674 61.0307 94.9976 61.234 94.8579 61.3828C94.7193 61.5306 94.5252 61.6044 94.2756 61.6044C94.0546 61.6044 93.8743 61.5432 93.7346 61.4206C93.5949 61.2981 93.5153 61.1286 93.4958 60.9122H93.7964C93.8159 61.0554 93.8668 61.1636 93.9493 61.2368C94.0317 61.309 94.1405 61.3451 94.2756 61.3451C94.4233 61.3451 94.539 61.2947 94.6226 61.1939C94.7073 61.0931 94.7497 60.954 94.7497 60.7765C94.7497 60.6093 94.7039 60.4754 94.6123 60.3746C94.5218 60.2727 94.401 60.2217 94.2498 60.2217C94.1113 60.2217 94.0025 60.2521 93.9235 60.3128L93.8393 60.3815L93.5851 60.3162Z" fill="#F5F7F6"/>
<path d="M101.433 61.5701V59.0692H102.139C102.357 59.0692 102.549 59.1173 102.716 59.2135C102.884 59.3097 103.012 59.4465 103.103 59.624C103.194 59.8015 103.241 60.0053 103.242 60.2355V60.3952C103.242 60.6311 103.196 60.8378 103.105 61.0153C103.014 61.1928 102.884 61.329 102.715 61.4241C102.546 61.5191 102.35 61.5678 102.126 61.5701H101.433ZM101.763 59.3406V61.3004H102.11C102.364 61.3004 102.562 61.2214 102.703 61.0634C102.845 60.9053 102.916 60.6803 102.916 60.3883V60.2423C102.916 59.9584 102.849 59.7379 102.715 59.5811C102.582 59.423 102.393 59.3429 102.148 59.3406H101.763ZM105.085 60.9174H104.037L103.802 61.5701H103.462L104.417 59.0692H104.705L105.662 61.5701H105.324L105.085 60.9174ZM104.137 60.646H104.987L104.561 59.4763L104.137 60.646ZM107.503 59.3406H106.7V61.5701H106.372V59.3406H105.569V59.0692H107.503V59.3406ZM109.118 60.9174H108.07L107.835 61.5701H107.495L108.45 59.0692H108.738L109.695 61.5701H109.357L109.118 60.9174ZM108.17 60.646H109.02L108.594 59.4763L108.17 60.646ZM112.39 60.5034C112.39 60.8756 112.327 61.1521 112.199 61.333C112.072 61.514 111.874 61.6044 111.603 61.6044C111.337 61.6044 111.139 61.5162 111.011 61.3399C110.883 61.1624 110.816 60.8979 110.812 60.5464V60.1221C110.812 59.7545 110.875 59.4814 111.002 59.3028C111.129 59.1242 111.329 59.0349 111.6 59.0349C111.869 59.0349 112.067 59.1213 112.194 59.2942C112.321 59.466 112.387 59.7316 112.39 60.0912V60.5034ZM112.072 60.0689C112.072 59.7998 112.035 59.604 111.959 59.4814C111.883 59.3578 111.764 59.2959 111.6 59.2959C111.437 59.2959 111.319 59.3572 111.244 59.4797C111.17 59.6022 111.132 59.7906 111.129 60.0448V60.5532C111.129 60.8235 111.168 61.0233 111.246 61.1527C111.325 61.2809 111.444 61.3451 111.603 61.3451C111.76 61.3451 111.877 61.2844 111.952 61.163C112.029 61.0416 112.069 60.8504 112.072 60.5893V60.0689ZM114.044 59.0675V59.3372H113.986C113.738 59.3417 113.541 59.415 113.395 59.557C113.248 59.699 113.164 59.8988 113.141 60.1565C113.272 60.0053 113.452 59.9297 113.68 59.9297C113.898 59.9297 114.071 60.0065 114.2 60.1599C114.331 60.3133 114.396 60.5114 114.396 60.7542C114.396 61.0118 114.326 61.218 114.185 61.3725C114.045 61.5271 113.857 61.6044 113.622 61.6044C113.382 61.6044 113.188 61.5128 113.039 61.3296C112.89 61.1452 112.816 60.9082 112.816 60.6185V60.4966C112.816 60.0362 112.914 59.6847 113.11 59.4419C113.307 59.198 113.599 59.0732 113.987 59.0675H114.044ZM113.627 60.1943C113.518 60.1943 113.418 60.2269 113.326 60.2922C113.235 60.3574 113.171 60.4393 113.136 60.5378V60.6546C113.136 60.8607 113.182 61.0267 113.275 61.1527C113.367 61.2786 113.483 61.3416 113.622 61.3416C113.765 61.3416 113.877 61.289 113.958 61.1836C114.041 61.0783 114.082 60.9403 114.082 60.7697C114.082 60.5979 114.04 60.4593 113.957 60.354C113.874 60.2475 113.764 60.1943 113.627 60.1943Z" fill="#F5F7F6"/>
<path d="M120.69 61.5701V59.0692H121.396C121.613 59.0692 121.806 59.1173 121.973 59.2135C122.14 59.3097 122.269 59.4465 122.359 59.624C122.451 59.8015 122.497 60.0053 122.499 60.2355V60.3952C122.499 60.6311 122.453 60.8378 122.361 61.0153C122.271 61.1928 122.141 61.329 121.971 61.4241C121.803 61.5191 121.607 61.5678 121.382 61.5701H120.69ZM121.02 59.3406V61.3004H121.367C121.621 61.3004 121.818 61.2214 121.959 61.0634C122.101 60.9053 122.172 60.6803 122.172 60.3883V60.2423C122.172 59.9584 122.105 59.7379 121.971 59.5811C121.838 59.423 121.65 59.3429 121.404 59.3406H121.02ZM124.342 60.9174H123.294L123.059 61.5701H122.718L123.673 59.0692H123.962L124.919 61.5701H124.58L124.342 60.9174ZM123.393 60.646H124.244L123.818 59.4763L123.393 60.646ZM126.76 59.3406H125.956V61.5701H125.628V59.3406H124.826V59.0692H126.76V59.3406ZM128.375 60.9174H127.327L127.092 61.5701H126.751L127.706 59.0692H127.995L128.952 61.5701H128.613L128.375 60.9174ZM127.426 60.646H128.277L127.851 59.4763L127.426 60.646ZM131.647 60.5034C131.647 60.8756 131.583 61.1521 131.456 61.333C131.329 61.514 131.13 61.6044 130.86 61.6044C130.593 61.6044 130.396 61.5162 130.267 61.3399C130.139 61.1624 130.073 60.8979 130.068 60.5464V60.1221C130.068 59.7545 130.132 59.4814 130.259 59.3028C130.386 59.1242 130.585 59.0349 130.857 59.0349C131.126 59.0349 131.324 59.1213 131.451 59.2942C131.578 59.466 131.643 59.7316 131.647 60.0912V60.5034ZM131.329 60.0689C131.329 59.7998 131.291 59.604 131.216 59.4814C131.14 59.3578 131.02 59.2959 130.857 59.2959C130.694 59.2959 130.575 59.3572 130.501 59.4797C130.427 59.6022 130.388 59.7906 130.386 60.0448V60.5532C130.386 60.8235 130.425 61.0233 130.503 61.1527C130.582 61.2809 130.701 61.3451 130.86 61.3451C131.017 61.3451 131.133 61.2844 131.209 61.163C131.285 61.0416 131.325 60.8504 131.329 60.5893V60.0689ZM133.668 59.2478L132.633 61.5701H132.299L133.332 59.3303H131.978V59.0692H133.668V59.2478Z" fill="#F5F7F6"/>
<path d="M139.637 61.5701V59.0692H140.343C140.56 59.0692 140.753 59.1173 140.92 59.2135C141.087 59.3097 141.216 59.4465 141.306 59.624C141.398 59.8015 141.444 60.0053 141.445 60.2355V60.3952C141.445 60.6311 141.4 60.8378 141.308 61.0153C141.218 61.1928 141.088 61.329 140.918 61.4241C140.75 61.5191 140.553 61.5678 140.329 61.5701H139.637ZM139.967 59.3406V61.3004H140.314C140.568 61.3004 140.765 61.2214 140.906 61.0634C141.048 60.9053 141.119 60.6803 141.119 60.3883V60.2423C141.119 59.9584 141.052 59.7379 140.918 59.5811C140.785 59.423 140.596 59.3429 140.351 59.3406H139.967ZM143.289 60.9174H142.241L142.005 61.5701H141.665L142.62 59.0692H142.909L143.866 61.5701H143.527L143.289 60.9174ZM142.34 60.646H143.191L142.765 59.4763L142.34 60.646ZM145.707 59.3406H144.903V61.5701H144.575V59.3406H143.773V59.0692H145.707V59.3406ZM147.321 60.9174H146.274L146.038 61.5701H145.698L146.653 59.0692H146.942L147.899 61.5701H147.56L147.321 60.9174ZM146.373 60.646H147.224L146.798 59.4763L146.373 60.646ZM150.594 60.5034C150.594 60.8756 150.53 61.1521 150.403 61.333C150.276 61.514 150.077 61.6044 149.807 61.6044C149.54 61.6044 149.343 61.5162 149.214 61.3399C149.086 61.1624 149.02 60.8979 149.015 60.5464V60.1221C149.015 59.7545 149.079 59.4814 149.206 59.3028C149.333 59.1242 149.532 59.0349 149.803 59.0349C150.073 59.0349 150.271 59.1213 150.398 59.2942C150.525 59.466 150.59 59.7316 150.594 60.0912V60.5034ZM150.276 60.0689C150.276 59.7998 150.238 59.604 150.162 59.4814C150.087 59.3578 149.967 59.2959 149.803 59.2959C149.641 59.2959 149.522 59.3572 149.448 59.4797C149.373 59.6022 149.335 59.7906 149.333 60.0448V60.5532C149.333 60.8235 149.372 61.0233 149.45 61.1527C149.529 61.2809 149.648 61.3451 149.807 61.3451C149.964 61.3451 150.08 61.2844 150.156 61.163C150.232 61.0416 150.272 60.8504 150.276 60.5893V60.0689ZM152.517 59.7219C152.517 59.8467 152.484 59.9578 152.418 60.0551C152.352 60.1525 152.264 60.2286 152.151 60.2836C152.282 60.3397 152.385 60.4215 152.461 60.5292C152.537 60.6368 152.576 60.7588 152.576 60.895C152.576 61.1115 152.502 61.2838 152.356 61.412C152.21 61.5403 152.019 61.6044 151.78 61.6044C151.54 61.6044 151.347 61.5403 151.202 61.412C151.057 61.2827 150.985 61.1103 150.985 60.895C150.985 60.7599 151.022 60.638 151.095 60.5292C151.17 60.4204 151.272 60.338 151.403 60.2818C151.291 60.2269 151.204 60.1507 151.14 60.0534C151.076 59.9561 151.044 59.8456 151.044 59.7219C151.044 59.5112 151.111 59.344 151.246 59.2204C151.381 59.0967 151.559 59.0349 151.78 59.0349C152 59.0349 152.178 59.0967 152.313 59.2204C152.449 59.344 152.517 59.5112 152.517 59.7219ZM152.258 60.8882C152.258 60.7485 152.213 60.6345 152.124 60.5464C152.036 60.4582 151.92 60.4141 151.777 60.4141C151.634 60.4141 151.519 60.4576 151.432 60.5446C151.346 60.6317 151.303 60.7462 151.303 60.8882C151.303 61.0302 151.345 61.1418 151.428 61.2231C151.513 61.3044 151.63 61.3451 151.78 61.3451C151.929 61.3451 152.046 61.3044 152.131 61.2231C152.216 61.1407 152.258 61.029 152.258 60.8882ZM151.78 59.2959C151.656 59.2959 151.554 59.3349 151.476 59.4127C151.4 59.4895 151.361 59.5942 151.361 59.7271C151.361 59.8542 151.399 59.9572 151.475 60.0362C151.551 60.1141 151.653 60.153 151.78 60.153C151.908 60.153 152.009 60.1141 152.084 60.0362C152.161 59.9572 152.2 59.8542 152.2 59.7271C152.2 59.6 152.16 59.4963 152.081 59.4162C152.002 59.336 151.902 59.2959 151.78 59.2959Z" fill="#F5F7F6"/>
<defs>
<linearGradient id="paint0_linear_0_1349" x1="7.13095" y1="70.6363" x2="7.13095" y2="10.7609" gradientUnits="userSpaceOnUse">
<stop stop-color="#27B7FF"/>
<stop offset="0.9899" stop-color="#F408AB"/>
</linearGradient>
<linearGradient id="paint1_linear_0_1349" x1="13.6315" y1="70.6364" x2="13.6315" y2="10.7609" gradientUnits="userSpaceOnUse">
<stop stop-color="#27B7FF"/>
<stop offset="0.9899" stop-color="#F408AB"/>
</linearGradient>
<linearGradient id="paint2_linear_0_1349" x1="26.6326" y1="70.6364" x2="26.6326" y2="10.761" gradientUnits="userSpaceOnUse">
<stop stop-color="#27B7FF"/>
<stop offset="0.9899" stop-color="#F408AB"/>
</linearGradient>
<linearGradient id="paint3_linear_0_1349" x1="33.1332" y1="70.6364" x2="33.1332" y2="10.7611" gradientUnits="userSpaceOnUse">
<stop stop-color="#27B7FF"/>
<stop offset="0.9899" stop-color="#F408AB"/>
</linearGradient>
<linearGradient id="paint4_linear_0_1349" x1="46.1345" y1="70.6363" x2="46.1345" y2="10.7611" gradientUnits="userSpaceOnUse">
<stop stop-color="#27B7FF"/>
<stop offset="0.9899" stop-color="#F408AB"/>
</linearGradient>
<linearGradient id="paint5_linear_0_1349" x1="52.635" y1="70.6364" x2="52.635" y2="10.761" gradientUnits="userSpaceOnUse">
<stop stop-color="#27B7FF"/>
<stop offset="0.9899" stop-color="#F408AB"/>
</linearGradient>
<linearGradient id="paint6_linear_0_1349" x1="65.6361" y1="70.6364" x2="65.6361" y2="10.7611" gradientUnits="userSpaceOnUse">
<stop stop-color="#27B7FF"/>
<stop offset="0.9899" stop-color="#F408AB"/>
</linearGradient>
<linearGradient id="paint7_linear_0_1349" x1="72.1367" y1="70.6364" x2="72.1367" y2="10.7609" gradientUnits="userSpaceOnUse">
<stop stop-color="#27B7FF"/>
<stop offset="0.9899" stop-color="#F408AB"/>
</linearGradient>
<linearGradient id="paint8_linear_0_1349" x1="85.1379" y1="70.6363" x2="85.1379" y2="10.7611" gradientUnits="userSpaceOnUse">
<stop stop-color="#27B7FF"/>
<stop offset="0.9899" stop-color="#F408AB"/>
</linearGradient>
<linearGradient id="paint9_linear_0_1349" x1="91.6385" y1="70.6364" x2="91.6385" y2="10.761" gradientUnits="userSpaceOnUse">
<stop stop-color="#27B7FF"/>
<stop offset="0.9899" stop-color="#F408AB"/>
</linearGradient>
<linearGradient id="paint10_linear_0_1349" x1="104.64" y1="70.6363" x2="104.64" y2="10.7608" gradientUnits="userSpaceOnUse">
<stop stop-color="#27B7FF"/>
<stop offset="0.9899" stop-color="#F408AB"/>
</linearGradient>
<linearGradient id="paint11_linear_0_1349" x1="111.14" y1="70.6364" x2="111.14" y2="10.761" gradientUnits="userSpaceOnUse">
<stop stop-color="#27B7FF"/>
<stop offset="0.9899" stop-color="#F408AB"/>
</linearGradient>
<linearGradient id="paint12_linear_0_1349" x1="124.141" y1="70.6363" x2="124.141" y2="10.7611" gradientUnits="userSpaceOnUse">
<stop stop-color="#27B7FF"/>
<stop offset="0.9899" stop-color="#F408AB"/>
</linearGradient>
<linearGradient id="paint13_linear_0_1349" x1="130.642" y1="70.6364" x2="130.642" y2="10.7609" gradientUnits="userSpaceOnUse">
<stop stop-color="#27B7FF"/>
<stop offset="0.9899" stop-color="#F408AB"/>
</linearGradient>
<linearGradient id="paint14_linear_0_1349" x1="143.643" y1="70.6363" x2="143.643" y2="10.7609" gradientUnits="userSpaceOnUse">
<stop stop-color="#27B7FF"/>
<stop offset="0.9899" stop-color="#F408AB"/>
</linearGradient>
<linearGradient id="paint15_linear_0_1349" x1="150.144" y1="70.6363" x2="150.144" y2="10.761" gradientUnits="userSpaceOnUse">
<stop stop-color="#27B7FF"/>
<stop offset="0.9899" stop-color="#F408AB"/>
</linearGradient>
</defs>
</svg>
